%TF.GenerationSoftware,KiCad,Pcbnew,9.0.1*%
%TF.CreationDate,2026-01-23T01:31:55+09:00*%
%TF.ProjectId,AltairMD_V8,416c7461-6972-44d4-945f-56382e6b6963,rev?*%
%TF.SameCoordinates,Original*%
%TF.FileFunction,Legend,Bot*%
%TF.FilePolarity,Positive*%
%FSLAX46Y46*%
G04 Gerber Fmt 4.6, Leading zero omitted, Abs format (unit mm)*
G04 Created by KiCad (PCBNEW 9.0.1) date 2026-01-23 01:31:55*
%MOMM*%
%LPD*%
G01*
G04 APERTURE LIST*
G04 Aperture macros list*
%AMRoundRect*
0 Rectangle with rounded corners*
0 $1 Rounding radius*
0 $2 $3 $4 $5 $6 $7 $8 $9 X,Y pos of 4 corners*
0 Add a 4 corners polygon primitive as box body*
4,1,4,$2,$3,$4,$5,$6,$7,$8,$9,$2,$3,0*
0 Add four circle primitives for the rounded corners*
1,1,$1+$1,$2,$3*
1,1,$1+$1,$4,$5*
1,1,$1+$1,$6,$7*
1,1,$1+$1,$8,$9*
0 Add four rect primitives between the rounded corners*
20,1,$1+$1,$2,$3,$4,$5,0*
20,1,$1+$1,$4,$5,$6,$7,0*
20,1,$1+$1,$6,$7,$8,$9,0*
20,1,$1+$1,$8,$9,$2,$3,0*%
G04 Aperture macros list end*
%ADD10C,1.400000*%
%ADD11RoundRect,0.770000X0.980000X0.980000X-0.980000X0.980000X-0.980000X-0.980000X0.980000X-0.980000X0*%
%ADD12C,3.500000*%
%ADD13C,0.800000*%
%ADD14C,6.400000*%
%ADD15O,2.800000X2.000000*%
%ADD16RoundRect,0.250000X0.600000X0.725000X-0.600000X0.725000X-0.600000X-0.725000X0.600000X-0.725000X0*%
%ADD17O,1.700000X1.950000*%
%ADD18RoundRect,0.770000X0.980000X-0.980000X0.980000X0.980000X-0.980000X0.980000X-0.980000X-0.980000X0*%
G04 APERTURE END LIST*
%LPC*%
D10*
%TO.C,J6*%
X143000000Y-96500000D03*
X132000000Y-96500000D03*
D11*
X135000000Y-86500000D03*
D12*
X140000000Y-86500000D03*
%TD*%
D13*
%TO.C,H2*%
X71600000Y-44000000D03*
X72302944Y-42302944D03*
X72302944Y-45697056D03*
X74000000Y-41600000D03*
D14*
X74000000Y-44000000D03*
D13*
X74000000Y-46400000D03*
X75697056Y-42302944D03*
X75697056Y-45697056D03*
X76400000Y-44000000D03*
%TD*%
D15*
%TO.C,J1*%
X153500000Y-43400000D03*
D16*
X157250000Y-49900000D03*
D17*
X154750000Y-49900000D03*
X152250000Y-49900000D03*
X149750000Y-49900000D03*
%TD*%
D10*
%TO.C,J4*%
X158000000Y-96500000D03*
X147000000Y-96500000D03*
D11*
X150000000Y-86500000D03*
D12*
X155000000Y-86500000D03*
%TD*%
D13*
%TO.C,H1*%
X71600000Y-96000000D03*
X72302944Y-94302944D03*
X72302944Y-97697056D03*
X74000000Y-93600000D03*
D14*
X74000000Y-96000000D03*
D13*
X74000000Y-98400000D03*
X75697056Y-94302944D03*
X75697056Y-97697056D03*
X76400000Y-96000000D03*
%TD*%
%TO.C,H4*%
X163600000Y-96000000D03*
X164302944Y-94302944D03*
X164302944Y-97697056D03*
X166000000Y-93600000D03*
D14*
X166000000Y-96000000D03*
D13*
X166000000Y-98400000D03*
X167697056Y-94302944D03*
X167697056Y-97697056D03*
X168400000Y-96000000D03*
%TD*%
D10*
%TO.C,J7*%
X73500000Y-62500000D03*
X73500000Y-51500000D03*
D18*
X78500000Y-59500000D03*
D12*
X78500000Y-54500000D03*
%TD*%
D10*
%TO.C,J5*%
X73500000Y-88500000D03*
X73500000Y-77500000D03*
D18*
X78500000Y-85500000D03*
D12*
X78500000Y-80500000D03*
%TD*%
D15*
%TO.C,J2*%
X137750000Y-43500000D03*
D16*
X141500000Y-50000000D03*
D17*
X139000000Y-50000000D03*
X136500000Y-50000000D03*
X134000000Y-50000000D03*
%TD*%
D13*
%TO.C,H3*%
X163600000Y-44000000D03*
X164302944Y-42302944D03*
X164302944Y-45697056D03*
X166000000Y-41600000D03*
D14*
X166000000Y-44000000D03*
D13*
X166000000Y-46400000D03*
X167697056Y-42302944D03*
X167697056Y-45697056D03*
X168400000Y-44000000D03*
%TD*%
%LPD*%
M02*
