M48
; DRILL file {KiCad 9.0.1} date 2026-01-23T01:31:55+0900
; FORMAT={-:-/ absolute / inch / decimal}
; #@! TF.CreationDate,2026-01-23T01:31:55+09:00
; #@! TF.GenerationSoftware,Kicad,Pcbnew,9.0.1
; #@! TF.FileFunction,Plated,1,2,PTH
FMAT,2
INCH
; #@! TA.AperFunction,Plated,PTH,ViaDrill
T1C0.0157
; #@! TA.AperFunction,Plated,PTH,ComponentDrill
T2C0.0197
; #@! TA.AperFunction,Plated,PTH,ComponentDrill
T3C0.0374
; #@! TA.AperFunction,Plated,PTH,ComponentDrill
T4C0.0394
; #@! TA.AperFunction,Plated,PTH,ComponentDrill
T5C0.0748
; #@! TA.AperFunction,Plated,PTH,ComponentDrill
T6C0.1260
%
G90
G05
T1
X2.8Y-1.95
X2.85Y-1.9
X2.8543Y-2.7559
X2.8543Y-2.7953
X2.9Y-1.95
X2.95Y-1.9
X3.0Y-1.95
X3.05Y-1.9
X3.1Y-1.65
X3.1Y-1.75
X3.1Y-1.85
X3.1Y-3.7
X3.1Y-3.8
X3.1Y-3.9
X3.15Y-1.6
X3.15Y-1.7
X3.15Y-1.8
X3.15Y-3.75
X3.15Y-3.85
X3.2Y-1.65
X3.2Y-1.75
X3.2Y-3.7
X3.2Y-3.8
X3.2Y-3.9
X3.25Y-1.6
X3.25Y-1.7
X3.25Y-2.2
X3.25Y-2.3
X3.25Y-3.2
X3.25Y-3.3
X3.25Y-3.75
X3.25Y-3.85
X3.3Y-1.65
X3.3Y-1.75
X3.3Y-2.15
X3.3Y-2.25
X3.3Y-2.35
X3.3Y-3.15
X3.3Y-3.25
X3.3Y-3.35
X3.3Y-3.7
X3.3Y-3.8
X3.3Y-3.9
X3.35Y-1.6
X3.35Y-1.7
X3.35Y-2.1
X3.35Y-2.2
X3.35Y-2.3
X3.35Y-2.4
X3.35Y-3.1
X3.35Y-3.2
X3.35Y-3.3
X3.35Y-3.4
X3.35Y-3.75
X3.35Y-3.85
X3.4Y-1.65
X3.4Y-1.75
X3.4Y-2.05
X3.4Y-2.15
X3.4Y-2.25
X3.4Y-2.35
X3.4Y-2.45
X3.4Y-3.05
X3.4Y-3.15
X3.4Y-3.25
X3.4Y-3.35
X3.4Y-3.45
X3.4Y-3.8
X3.4Y-3.9
X3.45Y-1.6
X3.45Y-1.7
X3.45Y-2.1
X3.45Y-2.2
X3.45Y-2.3
X3.45Y-2.4
X3.45Y-3.1
X3.45Y-3.2
X3.45Y-3.3
X3.45Y-3.4
X3.45Y-3.75
X3.45Y-3.85
X3.5Y-1.65
X3.5Y-1.75
X3.5Y-2.05
X3.5Y-2.15
X3.5Y-2.25
X3.5Y-2.35
X3.5Y-2.45
X3.5Y-3.05
X3.5Y-3.15
X3.5Y-3.25
X3.5Y-3.35
X3.5Y-3.45
X3.5Y-3.8
X3.5Y-3.9
X3.55Y-1.6
X3.55Y-1.7
X3.55Y-2.1
X3.55Y-2.2
X3.55Y-2.3
X3.55Y-2.4
X3.55Y-3.1
X3.55Y-3.2
X3.55Y-3.3
X3.55Y-3.4
X3.55Y-3.75
X3.55Y-3.85
X3.6Y-1.65
X3.6Y-1.75
X3.6Y-3.8
X3.6Y-3.9
X3.65Y-1.6
X3.65Y-1.7
X3.65Y-3.75
X3.65Y-3.85
X3.6614Y-2.7953
X3.7Y-1.65
X3.7Y-1.75
X3.7Y-3.8
X3.7Y-3.9
X3.75Y-1.6
X3.75Y-1.7
X3.75Y-3.75
X3.75Y-3.85
X3.8Y-1.65
X3.8Y-1.75
X3.8Y-3.8
X3.8Y-3.9
X3.85Y-1.6
X3.85Y-1.7
X3.85Y-3.75
X3.85Y-3.85
X3.8976Y-2.5591
X3.9Y-1.65
X3.9Y-1.75
X3.9Y-3.8
X3.9Y-3.9
X3.95Y-1.6
X3.95Y-1.7
X3.95Y-3.75
X3.95Y-3.85
X4.0Y-1.65
X4.0Y-1.75
X4.0Y-3.8
X4.0Y-3.9
X4.0016Y-2.5692
X4.0016Y-2.9426
X4.0016Y-3.6121
X4.05Y-1.6
X4.05Y-1.7
X4.05Y-3.75
X4.05Y-3.85
X4.1Y-1.65
X4.1Y-1.75
X4.1Y-3.8
X4.1054Y-3.8967
X4.15Y-1.6
X4.15Y-1.7
X4.15Y-3.85
X4.2Y-1.65
X4.2Y-1.75
X4.2Y-3.8
X4.2Y-3.9
X4.234Y-2.6022
X4.25Y-1.6
X4.25Y-1.7
X4.25Y-3.85
X4.299Y-2.5115
X4.299Y-2.9987
X4.299Y-3.5482
X4.3Y-1.65
X4.3Y-1.75
X4.3Y-3.8
X4.3Y-3.9
X4.35Y-1.6
X4.35Y-1.7
X4.35Y-3.85
X4.4Y-1.65
X4.4Y-1.75
X4.4Y-3.8
X4.4Y-3.9
X4.4488Y-3.3481
X4.45Y-1.6
X4.45Y-1.7
X4.45Y-1.8
X4.45Y-1.9
X4.45Y-3.85
X4.4565Y-2.2803
X4.4654Y-3.1522
X4.4685Y-3.0709
X4.4771Y-3.2668
X4.5Y-1.65
X4.5Y-1.75
X4.5Y-1.85
X4.5Y-3.8
X4.5Y-3.9
X4.5079Y-2.1161
X4.5079Y-2.4114
X4.5443Y-3.3003
X4.55Y-1.6
X4.55Y-1.7
X4.55Y-1.8
X4.55Y-1.9
X4.55Y-3.85
X4.5639Y-2.9564
X4.5905Y-2.4183
X4.6Y-1.65
X4.6Y-1.75
X4.6Y-1.85
X4.6Y-3.8
X4.6Y-3.9
X4.6486Y-3.4225
X4.65Y-3.85
X4.6654Y-2.2441
X4.6778Y-2.9744
X4.689Y-2.8975
X4.7Y-3.8
X4.7Y-3.9
X4.7047Y-2.4016
X4.7441Y-2.3622
X4.75Y-3.05
X4.75Y-3.15
X4.75Y-3.85
X4.7638Y-2.4016
X4.8Y-3.0
X4.8Y-3.1
X4.8Y-3.2
X4.8Y-3.8
X4.8Y-3.9
X4.8031Y-2.3622
X4.8228Y-2.4016
X4.85Y-3.05
X4.85Y-3.15
X4.85Y-3.85
X4.8622Y-2.3622
X4.8819Y-2.4016
X4.9Y-3.0
X4.9Y-3.1
X4.9Y-3.2
X4.9Y-3.8
X4.9Y-3.9
X4.9213Y-2.3622
X4.95Y-3.05
X4.95Y-3.15
X4.95Y-3.85
X5.0Y-3.0
X5.0Y-3.1
X5.0Y-3.2
X5.0Y-3.8
X5.0Y-3.9
X5.05Y-3.05
X5.05Y-3.15
X5.05Y-3.85
X5.1Y-3.0
X5.1Y-3.1
X5.1Y-3.2
X5.1Y-3.8
X5.1Y-3.9
X5.15Y-3.05
X5.15Y-3.15
X5.15Y-3.85
X5.2Y-3.0
X5.2Y-3.1
X5.2Y-3.2
X5.25Y-3.05
X5.25Y-3.15
X5.2756Y-1.811
X5.3Y-3.0
X5.3Y-3.1
X5.3Y-3.2
X5.3Y-3.8
X5.3Y-3.9
X5.3346Y-1.811
X5.35Y-3.85
X5.3937Y-1.811
X5.4Y-3.8
X5.4Y-3.9
X5.4331Y-2.3819
X5.45Y-3.85
X5.4528Y-1.811
X5.5Y-3.8
X5.5Y-3.9
X5.5118Y-1.811
X5.5315Y-2.4213
X5.55Y-3.85
X5.5507Y-2.9081
X5.5709Y-1.811
X5.7087Y-2.4596
X5.75Y-3.0
X5.75Y-3.1
X5.8Y-3.05
X5.8Y-3.15
X5.8268Y-2.4596
X5.85Y-3.0
X5.85Y-3.1
X5.85Y-3.2
X5.8858Y-1.811
X5.9Y-3.05
X5.9Y-3.15
X5.9Y-3.25
X5.9Y-3.8
X5.9Y-3.9
X5.9449Y-1.811
X5.95Y-3.2
X5.95Y-3.85
X6.0Y-3.8
X6.0Y-3.9
X6.0039Y-1.811
X6.05Y-3.0
X6.05Y-3.1
X6.05Y-3.85
X6.063Y-1.811
X6.1Y-3.05
X6.1Y-3.15
X6.1Y-3.25
X6.1Y-3.8
X6.1Y-3.9
X6.122Y-1.811
X6.1315Y-3.8576
X6.15Y-3.0
X6.15Y-3.1
X6.15Y-3.2
X6.15Y-3.3
X6.15Y-3.7
X6.1811Y-1.811
X6.2Y-3.05
X6.2Y-3.15
X6.2Y-3.25
X6.2Y-3.35
X6.2Y-3.65
X6.25Y-3.0
X6.25Y-3.1
X6.25Y-3.2
X6.25Y-3.3
X6.25Y-3.4
X6.25Y-3.5
X6.25Y-3.6
X6.25Y-3.7
X6.25Y-3.9
X6.2992Y-2.2638
X6.3Y-3.05
X6.3Y-3.15
X6.3Y-3.25
X6.3Y-3.35
X6.3Y-3.45
X6.3Y-3.55
X6.3Y-3.65
X6.3Y-3.75
X6.3Y-3.85
X6.35Y-3.0
X6.35Y-3.1
X6.35Y-3.2
X6.35Y-3.3
X6.35Y-3.4
X6.35Y-3.5
X6.35Y-3.6
X6.35Y-3.7
X6.35Y-3.8
X6.35Y-3.9
X6.3583Y-2.2638
X6.3976Y-2.3819
X6.399Y-3.1502
X6.4Y-3.05
X6.4Y-3.25
X6.4Y-3.35
X6.4Y-3.45
X6.4Y-3.55
X6.437Y-2.3425
X6.45Y-3.0
X6.45Y-3.1
X6.45Y-3.2
X6.45Y-3.3
X6.45Y-3.4
X6.45Y-3.5
X6.45Y-3.6
X6.4764Y-2.3819
X6.5Y-3.05
X6.5Y-3.15
X6.5Y-3.25
X6.5Y-3.35
X6.5Y-3.45
X6.5Y-3.55
X6.5157Y-2.3425
X6.55Y-3.0
X6.55Y-3.1
X6.55Y-3.2
X6.55Y-3.3
X6.55Y-3.4
X6.55Y-3.5
X6.55Y-3.6
X6.5551Y-2.3819
X6.5945Y-2.3425
X6.6Y-3.05
X6.6Y-3.15
X6.6Y-3.25
X6.6Y-3.35
X6.6Y-3.45
X6.6Y-3.55
X6.6339Y-2.3819
X6.65Y-3.0
X6.65Y-3.1
X6.65Y-3.2
X6.65Y-3.3
X6.65Y-3.4
X6.65Y-3.5
X6.65Y-3.6
T2
X2.8189Y-1.7323
X2.8189Y-3.7795
X2.8466Y-1.6655
X2.8466Y-1.7991
X2.8466Y-3.7127
X2.8466Y-3.8463
X2.9134Y-1.6378
X2.9134Y-1.8268
X2.9134Y-3.685
X2.9134Y-3.874
X2.9802Y-1.6655
X2.9802Y-1.7991
X2.9802Y-3.7127
X2.9802Y-3.8463
X3.0079Y-1.7323
X3.0079Y-3.7795
X6.4409Y-1.7323
X6.4409Y-3.7795
X6.4686Y-1.6655
X6.4686Y-1.7991
X6.4686Y-3.7127
X6.4686Y-3.8463
X6.5354Y-1.6378
X6.5354Y-1.8268
X6.5354Y-3.685
X6.5354Y-3.874
X6.6022Y-1.6655
X6.6022Y-1.7991
X6.6022Y-3.7127
X6.6022Y-3.8463
X6.6299Y-1.7323
X6.6299Y-3.7795
T3
X5.2756Y-1.9685
X5.374Y-1.9685
X5.4724Y-1.9685
X5.5709Y-1.9685
X5.8957Y-1.9646
X5.9941Y-1.9646
X6.0925Y-1.9646
X6.1909Y-1.9646
T4
X2.8937Y-2.0276
X2.8937Y-2.4606
X2.8937Y-3.0512
X2.8937Y-3.4843
X5.1969Y-3.7992
X5.6299Y-3.7992
X5.7874Y-3.7992
X6.2205Y-3.7992
T5
X3.0906Y-2.1457
X3.0906Y-2.3425
X3.0906Y-3.1693
X3.0906Y-3.3661
X5.315Y-3.4055
X5.5118Y-3.4055
X5.9055Y-3.4055
X6.1024Y-3.4055
T6
X2.9134Y-1.7323
X2.9134Y-3.7795
X6.5354Y-1.7323
X6.5354Y-3.7795
M30
