%TF.GenerationSoftware,KiCad,Pcbnew,9.0.1*%
%TF.CreationDate,2026-01-23T01:31:55+09:00*%
%TF.ProjectId,AltairMD_V8,416c7461-6972-44d4-945f-56382e6b6963,rev?*%
%TF.SameCoordinates,Original*%
%TF.FileFunction,Soldermask,Top*%
%TF.FilePolarity,Negative*%
%FSLAX46Y46*%
G04 Gerber Fmt 4.6, Leading zero omitted, Abs format (unit mm)*
G04 Created by KiCad (PCBNEW 9.0.1) date 2026-01-23 01:31:55*
%MOMM*%
%LPD*%
G01*
G04 APERTURE LIST*
G04 Aperture macros list*
%AMRoundRect*
0 Rectangle with rounded corners*
0 $1 Rounding radius*
0 $2 $3 $4 $5 $6 $7 $8 $9 X,Y pos of 4 corners*
0 Add a 4 corners polygon primitive as box body*
4,1,4,$2,$3,$4,$5,$6,$7,$8,$9,$2,$3,0*
0 Add four circle primitives for the rounded corners*
1,1,$1+$1,$2,$3*
1,1,$1+$1,$4,$5*
1,1,$1+$1,$6,$7*
1,1,$1+$1,$8,$9*
0 Add four rect primitives between the rounded corners*
20,1,$1+$1,$2,$3,$4,$5,0*
20,1,$1+$1,$4,$5,$6,$7,0*
20,1,$1+$1,$6,$7,$8,$9,0*
20,1,$1+$1,$8,$9,$2,$3,0*%
G04 Aperture macros list end*
%ADD10RoundRect,0.200000X0.200000X0.275000X-0.200000X0.275000X-0.200000X-0.275000X0.200000X-0.275000X0*%
%ADD11C,1.400000*%
%ADD12RoundRect,0.770000X0.980000X0.980000X-0.980000X0.980000X-0.980000X-0.980000X0.980000X-0.980000X0*%
%ADD13C,3.500000*%
%ADD14RoundRect,0.250000X1.000000X-1.750000X1.000000X1.750000X-1.000000X1.750000X-1.000000X-1.750000X0*%
%ADD15RoundRect,0.200000X-0.200000X-0.275000X0.200000X-0.275000X0.200000X0.275000X-0.200000X0.275000X0*%
%ADD16RoundRect,0.218750X0.218750X0.256250X-0.218750X0.256250X-0.218750X-0.256250X0.218750X-0.256250X0*%
%ADD17RoundRect,0.225000X-0.225000X-0.250000X0.225000X-0.250000X0.225000X0.250000X-0.225000X0.250000X0*%
%ADD18RoundRect,0.250000X-0.350000X0.850000X-0.350000X-0.850000X0.350000X-0.850000X0.350000X0.850000X0*%
%ADD19RoundRect,0.249997X-2.650003X2.950003X-2.650003X-2.950003X2.650003X-2.950003X2.650003X2.950003X0*%
%ADD20C,0.800000*%
%ADD21C,6.400000*%
%ADD22RoundRect,0.150000X-0.150000X0.825000X-0.150000X-0.825000X0.150000X-0.825000X0.150000X0.825000X0*%
%ADD23RoundRect,0.250000X0.600000X0.725000X-0.600000X0.725000X-0.600000X-0.725000X0.600000X-0.725000X0*%
%ADD24O,1.700000X1.950000*%
%ADD25R,1.240000X1.890000*%
%ADD26RoundRect,0.225000X-0.250000X0.225000X-0.250000X-0.225000X0.250000X-0.225000X0.250000X0.225000X0*%
%ADD27RoundRect,0.225000X0.225000X0.250000X-0.225000X0.250000X-0.225000X-0.250000X0.225000X-0.250000X0*%
%ADD28R,1.300000X0.665000*%
%ADD29R,5.250000X6.230000*%
%ADD30R,5.250000X10.300000*%
%ADD31RoundRect,0.770000X0.980000X-0.980000X0.980000X0.980000X-0.980000X0.980000X-0.980000X-0.980000X0*%
G04 APERTURE END LIST*
D10*
%TO.C,R3*%
X116600000Y-81500000D03*
X114950000Y-81500000D03*
%TD*%
D11*
%TO.C,J6*%
X143000000Y-96500000D03*
X132000000Y-96500000D03*
D12*
X135000000Y-86500000D03*
D13*
X140000000Y-86500000D03*
%TD*%
D14*
%TO.C,C10*%
X122500000Y-92500000D03*
X122500000Y-84500000D03*
%TD*%
D15*
%TO.C,R1*%
X163465717Y-57468589D03*
X165115717Y-57468589D03*
%TD*%
D16*
%TO.C,D2*%
X168390150Y-54500000D03*
X166815150Y-54500000D03*
%TD*%
D17*
%TO.C,C12*%
X115000000Y-78500000D03*
X116550000Y-78500000D03*
%TD*%
D10*
%TO.C,R16*%
X116600000Y-72750000D03*
X114950000Y-72750000D03*
%TD*%
D18*
%TO.C,U3*%
X142755000Y-73375000D03*
D19*
X140475000Y-79675000D03*
D18*
X138195000Y-73375000D03*
%TD*%
D10*
%TO.C,R13*%
X114575000Y-62500000D03*
X112925000Y-62500000D03*
%TD*%
D20*
%TO.C,H2*%
X71600000Y-44000000D03*
X72302944Y-42302944D03*
X72302944Y-45697056D03*
X74000000Y-41600000D03*
D21*
X74000000Y-44000000D03*
D20*
X74000000Y-46400000D03*
X75697056Y-42302944D03*
X75697056Y-45697056D03*
X76400000Y-44000000D03*
%TD*%
D16*
%TO.C,D6*%
X168500000Y-65500000D03*
X166925000Y-65500000D03*
%TD*%
D22*
%TO.C,U2*%
X139310000Y-57550000D03*
X138040000Y-57550000D03*
X136770000Y-57550000D03*
X135500000Y-57550000D03*
X135500000Y-62500000D03*
X136770000Y-62500000D03*
X138040000Y-62500000D03*
X139310000Y-62500000D03*
%TD*%
D16*
%TO.C,D3*%
X168500000Y-51500000D03*
X166925000Y-51500000D03*
%TD*%
D23*
%TO.C,J1*%
X157250000Y-49900000D03*
D24*
X154750000Y-49900000D03*
X152250000Y-49900000D03*
X149750000Y-49900000D03*
%TD*%
D15*
%TO.C,R4*%
X163390150Y-54500000D03*
X165040150Y-54500000D03*
%TD*%
D25*
%TO.C,IC1*%
X142305000Y-69375000D03*
X138205000Y-69375000D03*
%TD*%
D10*
%TO.C,R7*%
X116650000Y-60000000D03*
X115000000Y-60000000D03*
%TD*%
D11*
%TO.C,J4*%
X158000000Y-96500000D03*
X147000000Y-96500000D03*
D12*
X150000000Y-86500000D03*
D13*
X155000000Y-86500000D03*
%TD*%
D10*
%TO.C,R14*%
X116575000Y-55000000D03*
X114925000Y-55000000D03*
%TD*%
D26*
%TO.C,C8*%
X134255000Y-73600000D03*
X134255000Y-75150000D03*
%TD*%
D17*
%TO.C,C16*%
X141450000Y-57500000D03*
X143000000Y-57500000D03*
%TD*%
D15*
%TO.C,R6*%
X114950000Y-77000000D03*
X116600000Y-77000000D03*
%TD*%
D20*
%TO.C,H1*%
X71600000Y-96000000D03*
X72302944Y-94302944D03*
X72302944Y-97697056D03*
X74000000Y-93600000D03*
D21*
X74000000Y-96000000D03*
D20*
X74000000Y-98400000D03*
X75697056Y-94302944D03*
X75697056Y-97697056D03*
X76400000Y-96000000D03*
%TD*%
D26*
%TO.C,C11*%
X130255000Y-73600000D03*
X130255000Y-75150000D03*
%TD*%
D27*
%TO.C,C15*%
X153500000Y-83000000D03*
X151950000Y-83000000D03*
%TD*%
D28*
%TO.C,IC3*%
X110600000Y-64000000D03*
X110600000Y-63000000D03*
X110600000Y-62000000D03*
X110600000Y-61000000D03*
X110600000Y-60000000D03*
X110600000Y-59000000D03*
X110600000Y-58000000D03*
X110600000Y-57000000D03*
X110600000Y-56000000D03*
X110600000Y-55000000D03*
X110600000Y-54000000D03*
X110600000Y-53000000D03*
X110600000Y-52000000D03*
X110600000Y-51000000D03*
X110600000Y-50000000D03*
X92400000Y-50000000D03*
X92400000Y-51000000D03*
X92400000Y-52000000D03*
X92400000Y-53000000D03*
X92400000Y-54000000D03*
X92400000Y-55000000D03*
X92400000Y-56000000D03*
X92400000Y-57000000D03*
X92400000Y-58000000D03*
X92400000Y-59000000D03*
X92400000Y-60000000D03*
X92400000Y-61000000D03*
X92400000Y-62000000D03*
X92400000Y-63000000D03*
X92400000Y-64000000D03*
D29*
X98450000Y-52835000D03*
X98450000Y-61165000D03*
D30*
X104550000Y-57000000D03*
%TD*%
D17*
%TO.C,C17*%
X141500000Y-62500000D03*
X143050000Y-62500000D03*
%TD*%
D16*
%TO.C,D1*%
X168465717Y-57468589D03*
X166890717Y-57468589D03*
%TD*%
D10*
%TO.C,R9*%
X116650000Y-58500000D03*
X115000000Y-58500000D03*
%TD*%
D20*
%TO.C,H4*%
X163600000Y-96000000D03*
X164302944Y-94302944D03*
X164302944Y-97697056D03*
X166000000Y-93600000D03*
D21*
X166000000Y-96000000D03*
D20*
X166000000Y-98400000D03*
X167697056Y-94302944D03*
X167697056Y-97697056D03*
X168400000Y-96000000D03*
%TD*%
D15*
%TO.C,R11*%
X163500000Y-68500000D03*
X165150000Y-68500000D03*
%TD*%
D22*
%TO.C,U1*%
X154405000Y-57525000D03*
X153135000Y-57525000D03*
X151865000Y-57525000D03*
X150595000Y-57525000D03*
X150595000Y-62475000D03*
X151865000Y-62475000D03*
X153135000Y-62475000D03*
X154405000Y-62475000D03*
%TD*%
D11*
%TO.C,J7*%
X73500000Y-62500000D03*
X73500000Y-51500000D03*
D31*
X78500000Y-59500000D03*
D13*
X78500000Y-54500000D03*
%TD*%
D10*
%TO.C,R8*%
X116600000Y-80000000D03*
X114950000Y-80000000D03*
%TD*%
D15*
%TO.C,R2*%
X163500000Y-71500000D03*
X165150000Y-71500000D03*
%TD*%
D17*
%TO.C,C13*%
X156225000Y-57500000D03*
X157775000Y-57500000D03*
%TD*%
%TO.C,C14*%
X156225000Y-62500000D03*
X157775000Y-62500000D03*
%TD*%
D26*
%TO.C,C7*%
X145255000Y-73375000D03*
X145255000Y-74925000D03*
%TD*%
D28*
%TO.C,IC2*%
X110600000Y-90000000D03*
X110600000Y-89000000D03*
X110600000Y-88000000D03*
X110600000Y-87000000D03*
X110600000Y-86000000D03*
X110600000Y-85000000D03*
X110600000Y-84000000D03*
X110600000Y-83000000D03*
X110600000Y-82000000D03*
X110600000Y-81000000D03*
X110600000Y-80000000D03*
X110600000Y-79000000D03*
X110600000Y-78000000D03*
X110600000Y-77000000D03*
X110600000Y-76000000D03*
X92400000Y-76000000D03*
X92400000Y-77000000D03*
X92400000Y-78000000D03*
X92400000Y-79000000D03*
X92400000Y-80000000D03*
X92400000Y-81000000D03*
X92400000Y-82000000D03*
X92400000Y-83000000D03*
X92400000Y-84000000D03*
X92400000Y-85000000D03*
X92400000Y-86000000D03*
X92400000Y-87000000D03*
X92400000Y-88000000D03*
X92400000Y-89000000D03*
X92400000Y-90000000D03*
D29*
X98450000Y-78835000D03*
X98450000Y-87165000D03*
D30*
X104550000Y-83000000D03*
%TD*%
D15*
%TO.C,R12*%
X163500000Y-65500000D03*
X165150000Y-65500000D03*
%TD*%
D16*
%TO.C,D5*%
X168500000Y-68500000D03*
X166925000Y-68500000D03*
%TD*%
D10*
%TO.C,R10*%
X116650000Y-57000000D03*
X115000000Y-57000000D03*
%TD*%
D11*
%TO.C,J5*%
X73500000Y-88500000D03*
X73500000Y-77500000D03*
D31*
X78500000Y-85500000D03*
D13*
X78500000Y-80500000D03*
%TD*%
D10*
%TO.C,R15*%
X115325000Y-87000000D03*
X113675000Y-87000000D03*
%TD*%
D16*
%TO.C,D4*%
X168500000Y-71500000D03*
X166925000Y-71500000D03*
%TD*%
D15*
%TO.C,R5*%
X163500000Y-51500000D03*
X165150000Y-51500000D03*
%TD*%
D23*
%TO.C,J2*%
X141500000Y-50000000D03*
D24*
X139000000Y-50000000D03*
X136500000Y-50000000D03*
X134000000Y-50000000D03*
%TD*%
D20*
%TO.C,H3*%
X163600000Y-44000000D03*
X164302944Y-42302944D03*
X164302944Y-45697056D03*
X166000000Y-41600000D03*
D21*
X166000000Y-44000000D03*
D20*
X166000000Y-46400000D03*
X167697056Y-42302944D03*
X167697056Y-45697056D03*
X168400000Y-44000000D03*
%TD*%
G36*
X72943039Y-69019685D02*
G01*
X72988794Y-69072489D01*
X73000000Y-69124000D01*
X73000000Y-69876000D01*
X72980315Y-69943039D01*
X72927511Y-69988794D01*
X72876000Y-70000000D01*
X70124000Y-70000000D01*
X70056961Y-69980315D01*
X70011206Y-69927511D01*
X70000000Y-69876000D01*
X70000000Y-69124000D01*
X70019685Y-69056961D01*
X70072489Y-69011206D01*
X70124000Y-69000000D01*
X72876000Y-69000000D01*
X72943039Y-69019685D01*
G37*
G36*
X72943039Y-71019685D02*
G01*
X72988794Y-71072489D01*
X73000000Y-71124000D01*
X73000000Y-71876000D01*
X72980315Y-71943039D01*
X72927511Y-71988794D01*
X72876000Y-72000000D01*
X70124000Y-72000000D01*
X70056961Y-71980315D01*
X70011206Y-71927511D01*
X70000000Y-71876000D01*
X70000000Y-71124000D01*
X70019685Y-71056961D01*
X70072489Y-71011206D01*
X70124000Y-71000000D01*
X72876000Y-71000000D01*
X72943039Y-71019685D01*
G37*
M02*
