%TF.GenerationSoftware,KiCad,Pcbnew,9.0.1*%
%TF.CreationDate,2026-01-23T01:31:55+09:00*%
%TF.ProjectId,AltairMD_V8,416c7461-6972-44d4-945f-56382e6b6963,rev?*%
%TF.SameCoordinates,Original*%
%TF.FileFunction,Copper,L2,Bot*%
%TF.FilePolarity,Positive*%
%FSLAX46Y46*%
G04 Gerber Fmt 4.6, Leading zero omitted, Abs format (unit mm)*
G04 Created by KiCad (PCBNEW 9.0.1) date 2026-01-23 01:31:55*
%MOMM*%
%LPD*%
G01*
G04 APERTURE LIST*
G04 Aperture macros list*
%AMRoundRect*
0 Rectangle with rounded corners*
0 $1 Rounding radius*
0 $2 $3 $4 $5 $6 $7 $8 $9 X,Y pos of 4 corners*
0 Add a 4 corners polygon primitive as box body*
4,1,4,$2,$3,$4,$5,$6,$7,$8,$9,$2,$3,0*
0 Add four circle primitives for the rounded corners*
1,1,$1+$1,$2,$3*
1,1,$1+$1,$4,$5*
1,1,$1+$1,$6,$7*
1,1,$1+$1,$8,$9*
0 Add four rect primitives between the rounded corners*
20,1,$1+$1,$2,$3,$4,$5,0*
20,1,$1+$1,$4,$5,$6,$7,0*
20,1,$1+$1,$6,$7,$8,$9,0*
20,1,$1+$1,$8,$9,$2,$3,0*%
G04 Aperture macros list end*
%TA.AperFunction,ComponentPad*%
%ADD10C,1.400000*%
%TD*%
%TA.AperFunction,ComponentPad*%
%ADD11RoundRect,0.770000X0.980000X0.980000X-0.980000X0.980000X-0.980000X-0.980000X0.980000X-0.980000X0*%
%TD*%
%TA.AperFunction,ComponentPad*%
%ADD12C,3.500000*%
%TD*%
%TA.AperFunction,ComponentPad*%
%ADD13C,0.800000*%
%TD*%
%TA.AperFunction,ComponentPad*%
%ADD14C,6.400000*%
%TD*%
%TA.AperFunction,ComponentPad*%
%ADD15RoundRect,0.250000X0.600000X0.725000X-0.600000X0.725000X-0.600000X-0.725000X0.600000X-0.725000X0*%
%TD*%
%TA.AperFunction,ComponentPad*%
%ADD16O,1.700000X1.950000*%
%TD*%
%TA.AperFunction,ComponentPad*%
%ADD17RoundRect,0.770000X0.980000X-0.980000X0.980000X0.980000X-0.980000X0.980000X-0.980000X-0.980000X0*%
%TD*%
%TA.AperFunction,ViaPad*%
%ADD18C,0.800000*%
%TD*%
%TA.AperFunction,Conductor*%
%ADD19C,1.000000*%
%TD*%
%TA.AperFunction,Conductor*%
%ADD20C,0.250000*%
%TD*%
G04 APERTURE END LIST*
D10*
%TO.P,J6,*%
%TO.N,*%
X143000000Y-96500000D03*
X132000000Y-96500000D03*
D11*
%TO.P,J6,1,Pin_1*%
%TO.N,GND2*%
X135000000Y-86500000D03*
D12*
%TO.P,J6,2,Pin_2*%
%TO.N,+24V*%
X140000000Y-86500000D03*
%TD*%
D13*
%TO.P,H2,1*%
%TO.N,N/C*%
X71600000Y-44000000D03*
X72302944Y-42302944D03*
X72302944Y-45697056D03*
X74000000Y-41600000D03*
D14*
X74000000Y-44000000D03*
D13*
X74000000Y-46400000D03*
X75697056Y-42302944D03*
X75697056Y-45697056D03*
X76400000Y-44000000D03*
%TD*%
D15*
%TO.P,J1,1,Pin_1*%
%TO.N,GND*%
X157250000Y-49900000D03*
D16*
%TO.P,J1,2,Pin_2*%
%TO.N,SDs-1*%
X154750000Y-49900000D03*
%TO.P,J1,3,Pin_3*%
%TO.N,Ps2-1*%
X152250000Y-49900000D03*
%TO.P,J1,4,Pin_4*%
%TO.N,Ps1-1*%
X149750000Y-49900000D03*
%TD*%
D10*
%TO.P,J4,*%
%TO.N,*%
X158000000Y-96500000D03*
X147000000Y-96500000D03*
D11*
%TO.P,J4,1,Pin_1*%
%TO.N,GND2*%
X150000000Y-86500000D03*
D12*
%TO.P,J4,2,Pin_2*%
%TO.N,+24V*%
X155000000Y-86500000D03*
%TD*%
D13*
%TO.P,H1,1*%
%TO.N,N/C*%
X71600000Y-96000000D03*
X72302944Y-94302944D03*
X72302944Y-97697056D03*
X74000000Y-93600000D03*
D14*
X74000000Y-96000000D03*
D13*
X74000000Y-98400000D03*
X75697056Y-94302944D03*
X75697056Y-97697056D03*
X76400000Y-96000000D03*
%TD*%
%TO.P,H4,1*%
%TO.N,N/C*%
X163600000Y-96000000D03*
X164302944Y-94302944D03*
X164302944Y-97697056D03*
X166000000Y-93600000D03*
D14*
X166000000Y-96000000D03*
D13*
X166000000Y-98400000D03*
X167697056Y-94302944D03*
X167697056Y-97697056D03*
X168400000Y-96000000D03*
%TD*%
D10*
%TO.P,J7,*%
%TO.N,*%
X73500000Y-62500000D03*
X73500000Y-51500000D03*
D17*
%TO.P,J7,1,Pin_1*%
%TO.N,OUTA2*%
X78500000Y-59500000D03*
D12*
%TO.P,J7,2,Pin_2*%
%TO.N,OUTB2*%
X78500000Y-54500000D03*
%TD*%
D10*
%TO.P,J5,*%
%TO.N,*%
X73500000Y-88500000D03*
X73500000Y-77500000D03*
D17*
%TO.P,J5,1,Pin_1*%
%TO.N,OUTA*%
X78500000Y-85500000D03*
D12*
%TO.P,J5,2,Pin_2*%
%TO.N,OUTB*%
X78500000Y-80500000D03*
%TD*%
D15*
%TO.P,J2,1,Pin_1*%
%TO.N,GND*%
X141500000Y-50000000D03*
D16*
%TO.P,J2,2,Pin_2*%
%TO.N,SDs-2*%
X139000000Y-50000000D03*
%TO.P,J2,3,Pin_3*%
%TO.N,Ps2-2*%
X136500000Y-50000000D03*
%TO.P,J2,4,Pin_4*%
%TO.N,Ps1-2*%
X134000000Y-50000000D03*
%TD*%
D13*
%TO.P,H3,1*%
%TO.N,N/C*%
X163600000Y-44000000D03*
X164302944Y-42302944D03*
X164302944Y-45697056D03*
X166000000Y-41600000D03*
D14*
X166000000Y-44000000D03*
D13*
X166000000Y-46400000D03*
X167697056Y-42302944D03*
X167697056Y-45697056D03*
X168400000Y-44000000D03*
%TD*%
D18*
%TO.N,+24V*%
X140987200Y-73864600D03*
%TO.N,GND*%
X164500000Y-60500000D03*
X167500000Y-59500000D03*
X165500000Y-59500000D03*
X155500000Y-46000000D03*
X135500000Y-46000000D03*
X141500000Y-46000000D03*
X140000000Y-46000000D03*
X161500000Y-57500000D03*
X160000000Y-57500000D03*
X163500000Y-59500000D03*
X168500000Y-60500000D03*
X134000000Y-46000000D03*
X152500000Y-46000000D03*
X154000000Y-46000000D03*
X151000000Y-46000000D03*
X157000000Y-46000000D03*
X138500000Y-46000000D03*
X166500000Y-60500000D03*
X149500000Y-46000000D03*
X162500000Y-60500000D03*
X137000000Y-46000000D03*
%TO.N,GND2*%
X133350000Y-77470000D03*
X99060000Y-44450000D03*
X116840000Y-44450000D03*
X93980000Y-99060000D03*
X116840000Y-46990000D03*
X162560000Y-90170000D03*
X163830000Y-81280000D03*
X107950000Y-97790000D03*
X85090000Y-55880000D03*
X121920000Y-99060000D03*
X85090000Y-78740000D03*
X81280000Y-96520000D03*
X140500000Y-61500000D03*
X109220000Y-96520000D03*
X127000000Y-96520000D03*
X162560000Y-77470000D03*
X85090000Y-58420000D03*
X139700000Y-96520000D03*
X125000000Y-60000000D03*
X80010000Y-45720000D03*
X167640000Y-87630000D03*
X85090000Y-83820000D03*
X127000000Y-81280000D03*
X119380000Y-99060000D03*
X113030000Y-48260000D03*
X82550000Y-81280000D03*
X105410000Y-43180000D03*
X83820000Y-82550000D03*
X88900000Y-59690000D03*
X116840000Y-96520000D03*
X110490000Y-97790000D03*
X135890000Y-97790000D03*
X87630000Y-53340000D03*
X155739588Y-97983725D03*
X113030000Y-45720000D03*
X86360000Y-62230000D03*
X120500000Y-60000000D03*
X168910000Y-86360000D03*
X166370000Y-83820000D03*
X165100000Y-82550000D03*
X166370000Y-86360000D03*
X88900000Y-44450000D03*
X161290000Y-99060000D03*
X158750000Y-99060000D03*
X124460000Y-81280000D03*
X93980000Y-96520000D03*
X124460000Y-96520000D03*
X134620000Y-96520000D03*
X162560000Y-85090000D03*
X121920000Y-81280000D03*
X101600000Y-44450000D03*
X92710000Y-97790000D03*
X165100000Y-77470000D03*
X153670000Y-97790000D03*
X83820000Y-59690000D03*
X91440000Y-99060000D03*
X166370000Y-78740000D03*
X91440000Y-44450000D03*
X137160000Y-96520000D03*
X107544000Y-66095800D03*
X115570000Y-45720000D03*
X99060000Y-41910000D03*
X167640000Y-82550000D03*
X91440000Y-96520000D03*
X163830000Y-78740000D03*
X90170000Y-83820000D03*
X86360000Y-54610000D03*
X111760000Y-99060000D03*
X115570000Y-97790000D03*
X130810000Y-77470000D03*
X105410000Y-97790000D03*
X90170000Y-53340000D03*
X104140000Y-44450000D03*
X96520000Y-99060000D03*
X85090000Y-97790000D03*
X158750000Y-88900000D03*
X106680000Y-44450000D03*
X124460000Y-78740000D03*
X90170000Y-58420000D03*
X161290000Y-81280000D03*
X86360000Y-96520000D03*
X90170000Y-97790000D03*
X148590000Y-78740000D03*
X160020000Y-92710000D03*
X168910000Y-81280000D03*
X167640000Y-90170000D03*
X86360000Y-59690000D03*
X166370000Y-76200000D03*
X102870000Y-43180000D03*
X87630000Y-40640000D03*
X152400000Y-99060000D03*
X157480000Y-82550000D03*
X154940000Y-96520000D03*
X78740000Y-44450000D03*
X82550000Y-95250000D03*
X149860000Y-77470000D03*
X88900000Y-82550000D03*
X123190000Y-77470000D03*
X139700000Y-99060000D03*
X114300000Y-41910000D03*
X120650000Y-77470000D03*
X77470000Y-48260000D03*
X102870000Y-95250000D03*
X133350000Y-80010000D03*
X85090000Y-60960000D03*
X140970000Y-97790000D03*
X127000000Y-76200000D03*
X109220000Y-99060000D03*
X146050000Y-76200000D03*
X88900000Y-99060000D03*
X76200000Y-49530000D03*
X87630000Y-81280000D03*
X121920000Y-76200000D03*
X100330000Y-97790000D03*
X109220000Y-44450000D03*
X95250000Y-97790000D03*
X80010000Y-43180000D03*
X116840000Y-41910000D03*
X161290000Y-78740000D03*
X87630000Y-86360000D03*
X82550000Y-40640000D03*
X147320000Y-80010000D03*
X101600000Y-41910000D03*
X128270000Y-97790000D03*
X90170000Y-95250000D03*
X87630000Y-43180000D03*
X157480000Y-92710000D03*
X99060000Y-99060000D03*
X168910000Y-76200000D03*
X157480000Y-85090000D03*
X87630000Y-78740000D03*
X96520000Y-44450000D03*
X134620000Y-78740000D03*
X90170000Y-60960000D03*
X123500000Y-60000000D03*
X81280000Y-44450000D03*
X153670000Y-78740000D03*
X114300000Y-44450000D03*
X71120000Y-49530000D03*
X160020000Y-95250000D03*
X88900000Y-80010000D03*
X130810000Y-80010000D03*
X102870000Y-97790000D03*
X160020000Y-90170000D03*
X110490000Y-40640000D03*
X113030000Y-40640000D03*
X168910000Y-83820000D03*
X124460000Y-76200000D03*
X82550000Y-97790000D03*
X88900000Y-62230000D03*
X165100000Y-80010000D03*
X156210000Y-93980000D03*
X158750000Y-78740000D03*
X88900000Y-96520000D03*
X107950000Y-43180000D03*
X121000000Y-61000000D03*
X88900000Y-85090000D03*
X83820000Y-41910000D03*
X91440000Y-41910000D03*
X88900000Y-57150000D03*
X152400000Y-96520000D03*
X124460000Y-99060000D03*
X80010000Y-97790000D03*
X88900000Y-54610000D03*
X127000000Y-99060000D03*
X97790000Y-95250000D03*
X86360000Y-41910000D03*
X86360000Y-77470000D03*
X78740000Y-99060000D03*
X162560000Y-82550000D03*
X100330000Y-95250000D03*
X134620000Y-76200000D03*
X163830000Y-76200000D03*
X129540000Y-96520000D03*
X166370000Y-81280000D03*
X73660000Y-49530000D03*
X138000000Y-60500000D03*
X130810000Y-97790000D03*
X100330000Y-43180000D03*
X85090000Y-43180000D03*
X168910000Y-78740000D03*
X97790000Y-43180000D03*
X166370000Y-91440000D03*
X128270000Y-77470000D03*
X149860000Y-99060000D03*
X120650000Y-97790000D03*
X163830000Y-86360000D03*
X162560000Y-87630000D03*
X95250000Y-40640000D03*
X90170000Y-86360000D03*
X137160000Y-99060000D03*
X82550000Y-55880000D03*
X127000000Y-78740000D03*
X153670000Y-76200000D03*
X72390000Y-48260000D03*
X161290000Y-88900000D03*
X129540000Y-99060000D03*
X86360000Y-82550000D03*
X156210000Y-81280000D03*
X167640000Y-80010000D03*
X85090000Y-86360000D03*
X92710000Y-43180000D03*
X148590000Y-81280000D03*
X88900000Y-77470000D03*
X116840000Y-99060000D03*
X128270000Y-80010000D03*
X129540000Y-78740000D03*
X114300000Y-96520000D03*
X158750000Y-91440000D03*
X83820000Y-54610000D03*
X85090000Y-40640000D03*
X134620000Y-81280000D03*
X125730000Y-80010000D03*
X86360000Y-52070000D03*
X87630000Y-97790000D03*
X78740000Y-41910000D03*
X87630000Y-58420000D03*
X123190000Y-80010000D03*
X161290000Y-96520000D03*
X122500000Y-61000000D03*
X157480000Y-77470000D03*
X104140000Y-96520000D03*
X106680000Y-41910000D03*
X111760000Y-44450000D03*
X163830000Y-83820000D03*
X160020000Y-97790000D03*
X86360000Y-80010000D03*
X149860000Y-82550000D03*
X125730000Y-97790000D03*
X148000000Y-62475003D03*
X157480000Y-80010000D03*
X121920000Y-78740000D03*
X166370000Y-88900000D03*
X168910000Y-91440000D03*
X81280000Y-41910000D03*
X124000000Y-61000000D03*
X83820000Y-93980000D03*
X158750000Y-83820000D03*
X154940000Y-82550000D03*
X90170000Y-43180000D03*
X87630000Y-55880000D03*
X92710000Y-40640000D03*
X78740000Y-93980000D03*
X165100000Y-90170000D03*
X96520000Y-41910000D03*
X109220000Y-41910000D03*
X114300000Y-46990000D03*
X102870000Y-40640000D03*
X160020000Y-82550000D03*
X93980000Y-44450000D03*
X118110000Y-97790000D03*
X163830000Y-91440000D03*
X106680000Y-99060000D03*
X138430000Y-97790000D03*
X90170000Y-81280000D03*
X85090000Y-81280000D03*
X78740000Y-46990000D03*
X154940000Y-99060000D03*
X111760000Y-96520000D03*
X90170000Y-40640000D03*
X111760000Y-41910000D03*
X83820000Y-57150000D03*
X107950000Y-40640000D03*
X96520000Y-96520000D03*
X83820000Y-99060000D03*
X83820000Y-85090000D03*
X82550000Y-43180000D03*
X113030000Y-43180000D03*
X129540000Y-81280000D03*
X162534088Y-80014114D03*
X119380000Y-96520000D03*
X95250000Y-43180000D03*
X82550000Y-83820000D03*
X120650000Y-80010000D03*
X115570000Y-43180000D03*
X81280000Y-93980000D03*
X158750000Y-76200000D03*
X161290000Y-76200000D03*
X110490000Y-43180000D03*
X158750000Y-81280000D03*
X132080000Y-76200000D03*
X78740000Y-96520000D03*
X85090000Y-53340000D03*
X97790000Y-97790000D03*
X148590000Y-76200000D03*
X85090000Y-95250000D03*
X99060000Y-96520000D03*
X154940000Y-77470000D03*
X95250000Y-95250000D03*
X161290000Y-83820000D03*
X149860000Y-80010000D03*
X101600000Y-99060000D03*
X167640000Y-77470000D03*
X83820000Y-44450000D03*
X165100000Y-87630000D03*
X132080000Y-78740000D03*
X161290000Y-86360000D03*
X161290000Y-93980000D03*
X115426100Y-83826900D03*
X156210000Y-76200000D03*
X88900000Y-52070000D03*
X86360000Y-85090000D03*
X161290000Y-91440000D03*
X82550000Y-58420000D03*
X86360000Y-44450000D03*
X123190000Y-97790000D03*
X86360000Y-87630000D03*
X158750000Y-86360000D03*
X100330000Y-40640000D03*
X156210000Y-83820000D03*
X168910000Y-88900000D03*
X104277230Y-98975481D03*
X156210000Y-78740000D03*
X160020000Y-77470000D03*
X114300000Y-99060000D03*
X90170000Y-55880000D03*
X154940000Y-80010000D03*
X104140000Y-41910000D03*
X147320000Y-77470000D03*
X134620000Y-99060000D03*
X88900000Y-87630000D03*
X83820000Y-96520000D03*
X87630000Y-60960000D03*
X122000000Y-60000000D03*
X129540000Y-76200000D03*
X83820000Y-80010000D03*
X125730000Y-77470000D03*
X115570000Y-48260000D03*
X80010000Y-40640000D03*
X81280000Y-99060000D03*
X105410000Y-40640000D03*
X80010000Y-95250000D03*
X151130000Y-81280000D03*
X167640000Y-85090000D03*
X145000000Y-62475007D03*
X97790000Y-40640000D03*
X87630000Y-83820000D03*
X86360000Y-57150000D03*
X121920000Y-96520000D03*
X160020000Y-85090000D03*
X165100000Y-85090000D03*
X92710000Y-95250000D03*
X86360000Y-99060000D03*
X163830000Y-88900000D03*
X151130000Y-97790000D03*
X119500000Y-61000000D03*
X158750000Y-93980000D03*
X113030000Y-97790000D03*
X146050000Y-78740000D03*
X74930000Y-48260000D03*
X160020000Y-80010000D03*
X101600000Y-96520000D03*
X90170000Y-78740000D03*
X88900000Y-41910000D03*
X106680000Y-96520000D03*
X87630000Y-95250000D03*
X132080000Y-81280000D03*
X160020000Y-87630000D03*
X149860000Y-96520000D03*
X93980000Y-41910000D03*
X115570000Y-40640000D03*
%TO.N,+5V*%
X119099499Y-73597501D03*
X113193900Y-57918700D03*
X116598800Y-61425400D03*
%TO.N,OUTA*%
X109194500Y-90125000D03*
X101640600Y-91746600D03*
%TO.N,OUTB*%
X101640600Y-74741200D03*
X109194500Y-76167500D03*
%TO.N,Net-(IC2-CS_DIS)*%
X113000000Y-85042498D03*
X113421100Y-80065500D03*
%TO.N,Net-(IC2-CS)*%
X113719300Y-82976600D03*
X118815800Y-75549400D03*
%TO.N,CS*%
X93000000Y-71000000D03*
X113500000Y-78000000D03*
X72500000Y-71000000D03*
%TO.N,PWM1-1*%
X118073800Y-86931200D03*
X115923400Y-75093000D03*
%TO.N,OUTA2*%
X109194500Y-63791200D03*
X101640600Y-65258700D03*
%TO.N,PWM1-2*%
X114500000Y-53750000D03*
X114500000Y-61250000D03*
%TO.N,CS2*%
X72500000Y-70000000D03*
X99000000Y-65000000D03*
X118500000Y-57000000D03*
%TD*%
D19*
%TO.N,+24V*%
X140987200Y-73864600D02*
X140987182Y-84814740D01*
D20*
X140493590Y-86006396D02*
X140000000Y-86500000D01*
X140493590Y-86006396D02*
G75*
G03*
X140987208Y-84814740I-1191690J1191696D01*
G01*
%TO.N,GND2*%
X107447785Y-66000500D02*
X107447851Y-66000500D01*
X107447479Y-66000500D02*
X107447532Y-66000500D01*
X107448433Y-66000500D02*
X107448420Y-66000500D01*
X115426100Y-83826900D02*
X115085548Y-83486350D01*
X107445307Y-66000500D02*
X92459799Y-66000500D01*
X107447638Y-66000500D02*
X107447585Y-66000500D01*
X107447585Y-66000500D02*
X107447532Y-66000500D01*
X90170000Y-63505781D02*
X90170000Y-60960000D01*
X107448685Y-66000500D02*
X107448699Y-66000500D01*
X107639800Y-65811750D02*
X107639800Y-65811800D01*
X107447705Y-66000500D02*
X107447691Y-66000500D01*
X90459800Y-68000498D02*
X90459800Y-79137500D01*
X107446724Y-66000500D02*
X107446433Y-66000500D01*
X107450500Y-66002300D02*
X107544000Y-66095800D01*
X107446724Y-66000500D02*
X107446737Y-66000500D01*
X107450500Y-66002300D02*
X107450500Y-66002300D01*
X107447479Y-66000500D02*
X107447320Y-66000500D01*
X107447267Y-66000500D02*
X107447320Y-66000500D01*
X107450500Y-66002300D02*
X107449300Y-66001100D01*
X107447267Y-66000500D02*
X107447002Y-66000500D01*
X107448645Y-66000500D02*
X107448658Y-66000500D01*
X107448275Y-66000500D02*
X107448341Y-66000500D01*
X107448592Y-66000500D02*
X107448539Y-66000500D01*
X107447691Y-66000500D02*
X107447638Y-66000500D01*
X107448685Y-66000500D02*
X107448658Y-66000500D01*
X107448063Y-66000500D02*
X107447851Y-66000500D01*
X107446155Y-66000500D02*
X107446433Y-66000500D01*
X107448275Y-66000500D02*
X107448063Y-66000500D01*
X107450500Y-66002300D02*
X107449599Y-66001400D01*
X107448645Y-66000500D02*
X107448592Y-66000500D01*
X107448420Y-66000500D02*
X107448341Y-66000500D01*
X107450500Y-66002300D02*
X113151202Y-71703008D01*
X90459800Y-64000501D02*
X90459800Y-68000498D01*
X114744995Y-75550765D02*
X114744995Y-82664189D01*
X107448539Y-66000500D02*
X107448486Y-66000500D01*
X107639800Y-65811750D02*
X107639810Y-65932261D01*
X107591908Y-66047903D02*
X107544000Y-66095800D01*
X90459800Y-64000501D02*
X90314900Y-63855601D01*
X107448486Y-66000500D02*
X107448433Y-66000500D01*
X107447002Y-66000500D02*
X107446737Y-66000500D01*
X107446155Y-66000500D02*
X107445307Y-66000500D01*
X107447785Y-66000500D02*
X107447705Y-66000500D01*
X107591908Y-66047903D02*
G75*
G03*
X107639791Y-65932261I-115608J115603D01*
G01*
X90459800Y-68000498D02*
G75*
G02*
X92459799Y-66000500I2000000J-2D01*
G01*
X107450500Y-66002300D02*
X107450500Y-66002300D01*
X107450500Y-66002300D02*
X107450500Y-66002300D01*
X114744995Y-82664189D02*
G75*
G03*
X115085542Y-83486356I1162705J-11D01*
G01*
X107639800Y-65811750D02*
X107639800Y-65811750D01*
X107639800Y-65811750D02*
X107639800Y-65811750D01*
X113151202Y-71703008D02*
G75*
G02*
X114745007Y-75550765I-3847802J-3847792D01*
G01*
X107639800Y-65811750D02*
X107639800Y-65811750D01*
X90314900Y-63855601D02*
G75*
G02*
X90170007Y-63505781I349800J349801D01*
G01*
X107450500Y-66002300D02*
X107450500Y-66002300D01*
X107450500Y-66002300D02*
X107450500Y-66002300D01*
X90459800Y-64000501D02*
G75*
G03*
X92459799Y-66000500I2000000J1D01*
G01*
%TO.N,+5V*%
X119036999Y-65587667D02*
X119036999Y-73490806D01*
X119068249Y-73566251D02*
X119099499Y-73597501D01*
X116026576Y-52263599D02*
X114459206Y-52263598D01*
X116598800Y-61425400D02*
X117817899Y-62644500D01*
X116598800Y-61425400D02*
X116598799Y-52835822D01*
X113193900Y-57918700D02*
X113193900Y-53528907D01*
X119036999Y-65587667D02*
G75*
G03*
X117817889Y-62644510I-4162299J-33D01*
G01*
X119068249Y-73566251D02*
G75*
G02*
X119036996Y-73490806I75451J75451D01*
G01*
X113564500Y-52634199D02*
G75*
G02*
X114459206Y-52263602I894700J-894701D01*
G01*
X116026576Y-52263599D02*
G75*
G02*
X116431207Y-52431192I24J-572201D01*
G01*
X113564500Y-52634199D02*
G75*
G03*
X113193902Y-53528907I894700J-894701D01*
G01*
X116431199Y-52431200D02*
G75*
G02*
X116598790Y-52835822I-404599J-404600D01*
G01*
%TO.N,OUTA*%
X108180450Y-90125000D02*
X109194500Y-90125000D01*
X102451396Y-90935791D02*
X101640600Y-91746600D01*
X104408841Y-90124985D02*
X109194500Y-90125000D01*
X108180450Y-90125000D02*
X109194500Y-90125000D01*
X108180450Y-90125000D02*
X108180450Y-90125000D01*
X108180450Y-90125000D02*
X108180450Y-90125000D01*
X104408841Y-90124985D02*
G75*
G03*
X102451379Y-90935774I-41J-2768215D01*
G01*
X108180450Y-90125000D02*
X108180450Y-90125000D01*
%TO.N,OUTB*%
X106759652Y-74741200D02*
X101640600Y-74741200D01*
X108481349Y-75454350D02*
X109194500Y-76167500D01*
X106759652Y-74741200D02*
G75*
G02*
X108481363Y-75454336I48J-2434800D01*
G01*
%TO.N,Net-(IC2-CS_DIS)*%
X113421066Y-82247291D02*
X113421091Y-82247266D01*
X113421091Y-82247266D02*
X113421100Y-82247231D01*
X113000000Y-85042498D02*
X112993300Y-85035798D01*
X113109330Y-82559850D02*
X113109330Y-82558968D01*
X113421033Y-82247291D02*
X113421066Y-82247291D01*
X112993300Y-82675880D02*
X113109330Y-82559850D01*
X112993300Y-85035798D02*
X112993300Y-82675880D01*
X113109330Y-82558968D02*
X113206781Y-82461517D01*
X113193721Y-82475459D02*
X113206781Y-82461517D01*
X113421024Y-82247287D02*
X113421033Y-82247291D01*
X113421100Y-82247231D02*
X113421100Y-80065500D01*
X113420981Y-82247304D02*
X113421024Y-82247287D01*
X113420939Y-82247359D02*
X113420981Y-82247304D01*
X113206781Y-82461517D02*
X113420939Y-82247359D01*
%TO.N,Net-(IC2-CS)*%
X115449136Y-75732936D02*
X115688749Y-75972549D01*
X118207349Y-74940950D02*
X118815800Y-75549400D01*
X116180818Y-83768058D02*
X116180800Y-77160463D01*
X114813170Y-84345963D02*
X113816687Y-83349511D01*
X115196700Y-75123499D02*
X115196700Y-75073382D01*
X113719290Y-83114353D02*
X113719300Y-82976600D01*
X115943257Y-84341548D02*
X115938835Y-84345969D01*
X115937585Y-74332505D02*
X116738420Y-74332503D01*
X115196700Y-75073382D02*
G75*
G02*
X115413704Y-74549505I740900J-18D01*
G01*
X113719290Y-83114353D02*
G75*
G03*
X113816679Y-83349519I332510J-47D01*
G01*
X115196700Y-75123499D02*
G75*
G03*
X115449131Y-75732941I861900J-1D01*
G01*
X115688749Y-75972549D02*
G75*
G02*
X116180815Y-77160463I-1187949J-1187951D01*
G01*
X115943257Y-84341548D02*
G75*
G03*
X116180784Y-83768058I-573457J573448D01*
G01*
X114813170Y-84345963D02*
G75*
G03*
X115375999Y-84579085I562830J562863D01*
G01*
X115937585Y-74332505D02*
G75*
G03*
X115413708Y-74549509I15J-740895D01*
G01*
X118207349Y-74940950D02*
G75*
G03*
X116738420Y-74332492I-1468949J-1468950D01*
G01*
X115375999Y-84579089D02*
G75*
G03*
X115938832Y-84345966I1J795989D01*
G01*
%TO.N,CS*%
X113500000Y-78000000D02*
X106500000Y-71000000D01*
X94500000Y-71000000D02*
X93000000Y-71000000D01*
X106500000Y-71000000D02*
X94500000Y-71000000D01*
%TO.N,PWM1-1*%
X116998599Y-76168200D02*
X115923400Y-75093000D01*
X118073799Y-78763962D02*
X118073800Y-86931200D01*
X116998599Y-76168200D02*
G75*
G02*
X118073815Y-78763962I-2595799J-2595800D01*
G01*
%TO.N,OUTA2*%
X101640600Y-65258700D02*
X102374352Y-64524954D01*
X104145781Y-63791207D02*
X109194500Y-63791200D01*
X104145781Y-63791207D02*
G75*
G03*
X102374360Y-64524962I19J-2505193D01*
G01*
%TO.N,PWM1-2*%
X114500000Y-53750000D02*
X114500000Y-61250000D01*
%TO.N,CS2*%
X102000000Y-50000000D02*
X99500000Y-52500000D01*
X118500000Y-52000000D02*
X116500000Y-50000000D01*
X99000000Y-53000000D02*
X99000000Y-65000000D01*
X99500000Y-52500000D02*
X99000000Y-53000000D01*
X118500000Y-57000000D02*
X118500000Y-52000000D01*
X116500000Y-50000000D02*
X102000000Y-50000000D01*
%TD*%
%TA.AperFunction,Conductor*%
%TO.N,GND*%
G36*
X167003243Y-40000669D02*
G01*
X167280182Y-40015184D01*
X167287575Y-40015794D01*
X167349875Y-40022813D01*
X167355353Y-40023555D01*
X167597128Y-40061848D01*
X167605289Y-40063423D01*
X167660830Y-40076100D01*
X167665181Y-40077179D01*
X167908157Y-40142284D01*
X167916999Y-40145013D01*
X167959629Y-40159930D01*
X167963079Y-40161195D01*
X168209378Y-40255739D01*
X168218711Y-40259770D01*
X168239307Y-40269689D01*
X168241754Y-40270900D01*
X168493968Y-40399411D01*
X168505199Y-40405896D01*
X168505463Y-40406067D01*
X168757608Y-40569812D01*
X168768109Y-40577441D01*
X169002010Y-40766850D01*
X169011655Y-40775535D01*
X169224464Y-40988344D01*
X169233149Y-40997989D01*
X169422558Y-41231890D01*
X169430187Y-41242391D01*
X169594101Y-41494796D01*
X169600591Y-41506036D01*
X169729075Y-41758199D01*
X169730309Y-41760691D01*
X169740223Y-41781277D01*
X169744268Y-41790643D01*
X169838791Y-42036887D01*
X169840068Y-42040369D01*
X169854985Y-42082999D01*
X169857719Y-42091860D01*
X169922806Y-42334766D01*
X169923917Y-42339245D01*
X169930033Y-42366044D01*
X169936569Y-42394679D01*
X169938150Y-42402872D01*
X169976440Y-42644627D01*
X169977187Y-42650142D01*
X169984204Y-42712424D01*
X169984814Y-42719816D01*
X169999330Y-42996755D01*
X169999500Y-43003246D01*
X169999500Y-74376000D01*
X169979815Y-74443039D01*
X169927011Y-74488794D01*
X169875500Y-74500000D01*
X160624000Y-74500000D01*
X160556961Y-74480315D01*
X160511206Y-74427511D01*
X160500000Y-74376000D01*
X160500000Y-59500000D01*
X131124000Y-59500000D01*
X131056961Y-59480315D01*
X131011206Y-59427511D01*
X131000000Y-59376000D01*
X131000000Y-49768713D01*
X132649500Y-49768713D01*
X132649500Y-50231286D01*
X132682753Y-50441239D01*
X132748444Y-50643414D01*
X132844951Y-50832820D01*
X132969890Y-51004786D01*
X133120213Y-51155109D01*
X133292179Y-51280048D01*
X133292181Y-51280049D01*
X133292184Y-51280051D01*
X133481588Y-51376557D01*
X133683757Y-51442246D01*
X133893713Y-51475500D01*
X133893714Y-51475500D01*
X134106286Y-51475500D01*
X134106287Y-51475500D01*
X134316243Y-51442246D01*
X134518412Y-51376557D01*
X134707816Y-51280051D01*
X134729789Y-51264086D01*
X134879786Y-51155109D01*
X134879788Y-51155106D01*
X134879792Y-51155104D01*
X135030104Y-51004792D01*
X135149683Y-50840204D01*
X135205011Y-50797540D01*
X135274624Y-50791561D01*
X135336420Y-50824166D01*
X135350313Y-50840199D01*
X135469892Y-51004786D01*
X135469896Y-51004792D01*
X135620213Y-51155109D01*
X135792179Y-51280048D01*
X135792181Y-51280049D01*
X135792184Y-51280051D01*
X135981588Y-51376557D01*
X136183757Y-51442246D01*
X136393713Y-51475500D01*
X136393714Y-51475500D01*
X136606286Y-51475500D01*
X136606287Y-51475500D01*
X136816243Y-51442246D01*
X137018412Y-51376557D01*
X137207816Y-51280051D01*
X137229789Y-51264086D01*
X137379786Y-51155109D01*
X137379788Y-51155106D01*
X137379792Y-51155104D01*
X137530104Y-51004792D01*
X137649683Y-50840204D01*
X137705011Y-50797540D01*
X137774624Y-50791561D01*
X137836420Y-50824166D01*
X137850313Y-50840199D01*
X137969892Y-51004786D01*
X137969896Y-51004792D01*
X138120213Y-51155109D01*
X138292179Y-51280048D01*
X138292181Y-51280049D01*
X138292184Y-51280051D01*
X138481588Y-51376557D01*
X138683757Y-51442246D01*
X138893713Y-51475500D01*
X138893714Y-51475500D01*
X139106286Y-51475500D01*
X139106287Y-51475500D01*
X139316243Y-51442246D01*
X139518412Y-51376557D01*
X139707816Y-51280051D01*
X139729789Y-51264086D01*
X139879786Y-51155109D01*
X139879788Y-51155106D01*
X139879792Y-51155104D01*
X140030104Y-51004792D01*
X140030106Y-51004788D01*
X140030109Y-51004786D01*
X140155048Y-50832820D01*
X140155047Y-50832820D01*
X140155051Y-50832816D01*
X140251557Y-50643412D01*
X140317246Y-50441243D01*
X140350500Y-50231287D01*
X140350500Y-49768713D01*
X140334661Y-49668713D01*
X148399500Y-49668713D01*
X148399500Y-50131286D01*
X148432753Y-50341239D01*
X148498444Y-50543414D01*
X148594951Y-50732820D01*
X148719890Y-50904786D01*
X148870213Y-51055109D01*
X149042179Y-51180048D01*
X149042181Y-51180049D01*
X149042184Y-51180051D01*
X149231588Y-51276557D01*
X149433757Y-51342246D01*
X149643713Y-51375500D01*
X149643714Y-51375500D01*
X149856286Y-51375500D01*
X149856287Y-51375500D01*
X150066243Y-51342246D01*
X150268412Y-51276557D01*
X150457816Y-51180051D01*
X150492153Y-51155104D01*
X150629786Y-51055109D01*
X150629788Y-51055106D01*
X150629792Y-51055104D01*
X150780104Y-50904792D01*
X150899683Y-50740204D01*
X150955011Y-50697540D01*
X151024624Y-50691561D01*
X151086420Y-50724166D01*
X151100313Y-50740199D01*
X151167603Y-50832816D01*
X151219896Y-50904792D01*
X151370213Y-51055109D01*
X151542179Y-51180048D01*
X151542181Y-51180049D01*
X151542184Y-51180051D01*
X151731588Y-51276557D01*
X151933757Y-51342246D01*
X152143713Y-51375500D01*
X152143714Y-51375500D01*
X152356286Y-51375500D01*
X152356287Y-51375500D01*
X152566243Y-51342246D01*
X152768412Y-51276557D01*
X152957816Y-51180051D01*
X152992153Y-51155104D01*
X153129786Y-51055109D01*
X153129788Y-51055106D01*
X153129792Y-51055104D01*
X153280104Y-50904792D01*
X153399683Y-50740204D01*
X153455011Y-50697540D01*
X153524624Y-50691561D01*
X153586420Y-50724166D01*
X153600313Y-50740199D01*
X153667603Y-50832816D01*
X153719896Y-50904792D01*
X153870213Y-51055109D01*
X154042179Y-51180048D01*
X154042181Y-51180049D01*
X154042184Y-51180051D01*
X154231588Y-51276557D01*
X154433757Y-51342246D01*
X154643713Y-51375500D01*
X154643714Y-51375500D01*
X154856286Y-51375500D01*
X154856287Y-51375500D01*
X155066243Y-51342246D01*
X155268412Y-51276557D01*
X155457816Y-51180051D01*
X155492153Y-51155104D01*
X155629786Y-51055109D01*
X155629788Y-51055106D01*
X155629792Y-51055104D01*
X155780104Y-50904792D01*
X155780106Y-50904788D01*
X155780109Y-50904786D01*
X155905048Y-50732820D01*
X155905047Y-50732820D01*
X155905051Y-50732816D01*
X156001557Y-50543412D01*
X156067246Y-50341243D01*
X156100500Y-50131287D01*
X156100500Y-49668713D01*
X156067246Y-49458757D01*
X156001557Y-49256588D01*
X155905051Y-49067184D01*
X155905049Y-49067181D01*
X155905048Y-49067179D01*
X155780109Y-48895213D01*
X155629786Y-48744890D01*
X155457820Y-48619951D01*
X155268414Y-48523444D01*
X155268413Y-48523443D01*
X155268412Y-48523443D01*
X155066243Y-48457754D01*
X155066241Y-48457753D01*
X155066240Y-48457753D01*
X154904957Y-48432208D01*
X154856287Y-48424500D01*
X154643713Y-48424500D01*
X154595042Y-48432208D01*
X154433760Y-48457753D01*
X154231585Y-48523444D01*
X154042179Y-48619951D01*
X153870213Y-48744890D01*
X153719894Y-48895209D01*
X153719890Y-48895214D01*
X153600318Y-49059793D01*
X153544989Y-49102459D01*
X153475375Y-49108438D01*
X153413580Y-49075833D01*
X153399682Y-49059793D01*
X153280109Y-48895214D01*
X153280105Y-48895209D01*
X153129786Y-48744890D01*
X152957820Y-48619951D01*
X152768414Y-48523444D01*
X152768413Y-48523443D01*
X152768412Y-48523443D01*
X152566243Y-48457754D01*
X152566241Y-48457753D01*
X152566240Y-48457753D01*
X152404957Y-48432208D01*
X152356287Y-48424500D01*
X152143713Y-48424500D01*
X152095042Y-48432208D01*
X151933760Y-48457753D01*
X151731585Y-48523444D01*
X151542179Y-48619951D01*
X151370213Y-48744890D01*
X151219894Y-48895209D01*
X151219890Y-48895214D01*
X151100318Y-49059793D01*
X151044989Y-49102459D01*
X150975375Y-49108438D01*
X150913580Y-49075833D01*
X150899682Y-49059793D01*
X150780109Y-48895214D01*
X150780105Y-48895209D01*
X150629786Y-48744890D01*
X150457820Y-48619951D01*
X150268414Y-48523444D01*
X150268413Y-48523443D01*
X150268412Y-48523443D01*
X150066243Y-48457754D01*
X150066241Y-48457753D01*
X150066240Y-48457753D01*
X149904957Y-48432208D01*
X149856287Y-48424500D01*
X149643713Y-48424500D01*
X149595042Y-48432208D01*
X149433760Y-48457753D01*
X149231585Y-48523444D01*
X149042179Y-48619951D01*
X148870213Y-48744890D01*
X148719890Y-48895213D01*
X148594951Y-49067179D01*
X148498444Y-49256585D01*
X148432753Y-49458760D01*
X148399500Y-49668713D01*
X140334661Y-49668713D01*
X140317246Y-49558757D01*
X140251557Y-49356588D01*
X140155051Y-49167184D01*
X140155049Y-49167181D01*
X140155048Y-49167179D01*
X140030109Y-48995213D01*
X139879786Y-48844890D01*
X139707820Y-48719951D01*
X139518414Y-48623444D01*
X139518413Y-48623443D01*
X139518412Y-48623443D01*
X139316243Y-48557754D01*
X139316241Y-48557753D01*
X139316240Y-48557753D01*
X139154957Y-48532208D01*
X139106287Y-48524500D01*
X138893713Y-48524500D01*
X138845042Y-48532208D01*
X138683760Y-48557753D01*
X138481585Y-48623444D01*
X138292179Y-48719951D01*
X138120213Y-48844890D01*
X137969894Y-48995209D01*
X137969890Y-48995214D01*
X137850318Y-49159793D01*
X137794989Y-49202459D01*
X137725375Y-49208438D01*
X137663580Y-49175833D01*
X137649682Y-49159793D01*
X137530109Y-48995214D01*
X137530105Y-48995209D01*
X137379786Y-48844890D01*
X137207820Y-48719951D01*
X137018414Y-48623444D01*
X137018413Y-48623443D01*
X137018412Y-48623443D01*
X136816243Y-48557754D01*
X136816241Y-48557753D01*
X136816240Y-48557753D01*
X136654957Y-48532208D01*
X136606287Y-48524500D01*
X136393713Y-48524500D01*
X136345042Y-48532208D01*
X136183760Y-48557753D01*
X135981585Y-48623444D01*
X135792179Y-48719951D01*
X135620213Y-48844890D01*
X135469894Y-48995209D01*
X135469890Y-48995214D01*
X135350318Y-49159793D01*
X135294989Y-49202459D01*
X135225375Y-49208438D01*
X135163580Y-49175833D01*
X135149682Y-49159793D01*
X135030109Y-48995214D01*
X135030105Y-48995209D01*
X134879786Y-48844890D01*
X134707820Y-48719951D01*
X134518414Y-48623444D01*
X134518413Y-48623443D01*
X134518412Y-48623443D01*
X134316243Y-48557754D01*
X134316241Y-48557753D01*
X134316240Y-48557753D01*
X134154957Y-48532208D01*
X134106287Y-48524500D01*
X133893713Y-48524500D01*
X133845042Y-48532208D01*
X133683760Y-48557753D01*
X133481585Y-48623444D01*
X133292179Y-48719951D01*
X133120213Y-48844890D01*
X132969890Y-48995213D01*
X132844951Y-49167179D01*
X132748444Y-49356585D01*
X132682753Y-49558760D01*
X132649500Y-49768713D01*
X131000000Y-49768713D01*
X131000000Y-43401577D01*
X136099500Y-43401577D01*
X136099500Y-43598422D01*
X136130290Y-43792826D01*
X136191117Y-43980029D01*
X136280476Y-44155405D01*
X136396172Y-44314646D01*
X136535354Y-44453828D01*
X136694595Y-44569524D01*
X136777455Y-44611743D01*
X136869970Y-44658882D01*
X136869972Y-44658882D01*
X136869975Y-44658884D01*
X136970317Y-44691487D01*
X137057173Y-44719709D01*
X137251578Y-44750500D01*
X137251583Y-44750500D01*
X138248422Y-44750500D01*
X138442826Y-44719709D01*
X138630025Y-44658884D01*
X138805405Y-44569524D01*
X138964646Y-44453828D01*
X139103828Y-44314646D01*
X139219524Y-44155405D01*
X139308884Y-43980025D01*
X139369709Y-43792826D01*
X139372240Y-43776843D01*
X139400500Y-43598422D01*
X139400500Y-43401577D01*
X139386963Y-43316109D01*
X139384661Y-43301577D01*
X151849500Y-43301577D01*
X151849500Y-43498422D01*
X151880290Y-43692826D01*
X151941117Y-43880029D01*
X151992068Y-43980025D01*
X152030476Y-44055405D01*
X152146172Y-44214646D01*
X152285354Y-44353828D01*
X152444595Y-44469524D01*
X152527455Y-44511743D01*
X152619970Y-44558882D01*
X152619972Y-44558882D01*
X152619975Y-44558884D01*
X152720317Y-44591487D01*
X152807173Y-44619709D01*
X153001578Y-44650500D01*
X153001583Y-44650500D01*
X153998422Y-44650500D01*
X154192826Y-44619709D01*
X154380025Y-44558884D01*
X154555405Y-44469524D01*
X154714646Y-44353828D01*
X154853828Y-44214646D01*
X154969524Y-44055405D01*
X155058884Y-43880025D01*
X155078969Y-43818209D01*
X162299500Y-43818209D01*
X162299500Y-44181790D01*
X162335137Y-44543630D01*
X162406064Y-44900212D01*
X162406067Y-44900223D01*
X162511614Y-45248165D01*
X162650754Y-45584078D01*
X162650756Y-45584083D01*
X162822140Y-45904720D01*
X162822151Y-45904738D01*
X163024140Y-46207035D01*
X163024150Y-46207049D01*
X163254807Y-46488106D01*
X163511893Y-46745192D01*
X163511898Y-46745196D01*
X163511899Y-46745197D01*
X163792956Y-46975854D01*
X164095268Y-47177853D01*
X164095277Y-47177858D01*
X164095279Y-47177859D01*
X164415916Y-47349243D01*
X164415918Y-47349243D01*
X164415924Y-47349247D01*
X164751836Y-47488386D01*
X165099767Y-47593930D01*
X165099773Y-47593931D01*
X165099776Y-47593932D01*
X165099787Y-47593935D01*
X165456369Y-47664862D01*
X165818206Y-47700500D01*
X165818209Y-47700500D01*
X166181791Y-47700500D01*
X166181794Y-47700500D01*
X166543631Y-47664862D01*
X166613045Y-47651054D01*
X166900212Y-47593935D01*
X166900223Y-47593932D01*
X166900223Y-47593931D01*
X166900233Y-47593930D01*
X167248164Y-47488386D01*
X167584076Y-47349247D01*
X167904732Y-47177853D01*
X168207044Y-46975854D01*
X168488101Y-46745197D01*
X168745197Y-46488101D01*
X168975854Y-46207044D01*
X169177853Y-45904732D01*
X169349247Y-45584076D01*
X169488386Y-45248164D01*
X169593930Y-44900233D01*
X169593932Y-44900223D01*
X169593935Y-44900212D01*
X169651054Y-44613045D01*
X169664862Y-44543631D01*
X169700500Y-44181794D01*
X169700500Y-43818206D01*
X169664862Y-43456369D01*
X169593935Y-43099787D01*
X169593932Y-43099776D01*
X169593931Y-43099773D01*
X169593930Y-43099767D01*
X169488386Y-42751836D01*
X169349247Y-42415924D01*
X169337891Y-42394679D01*
X169177859Y-42095279D01*
X169177858Y-42095277D01*
X169177853Y-42095268D01*
X168975854Y-41792956D01*
X168745197Y-41511899D01*
X168745196Y-41511898D01*
X168745192Y-41511893D01*
X168488106Y-41254807D01*
X168207049Y-41024150D01*
X168207048Y-41024149D01*
X168207044Y-41024146D01*
X167904732Y-40822147D01*
X167904727Y-40822144D01*
X167904720Y-40822140D01*
X167584083Y-40650756D01*
X167584078Y-40650754D01*
X167248165Y-40511614D01*
X166900223Y-40406067D01*
X166900212Y-40406064D01*
X166543630Y-40335137D01*
X166271111Y-40308296D01*
X166181794Y-40299500D01*
X165818206Y-40299500D01*
X165735679Y-40307628D01*
X165456369Y-40335137D01*
X165099787Y-40406064D01*
X165099776Y-40406067D01*
X164751834Y-40511614D01*
X164415921Y-40650754D01*
X164415916Y-40650756D01*
X164095279Y-40822140D01*
X164095261Y-40822151D01*
X163792964Y-41024140D01*
X163792950Y-41024150D01*
X163511893Y-41254807D01*
X163254807Y-41511893D01*
X163024150Y-41792950D01*
X163024140Y-41792964D01*
X162822151Y-42095261D01*
X162822140Y-42095279D01*
X162650756Y-42415916D01*
X162650754Y-42415921D01*
X162511614Y-42751834D01*
X162406067Y-43099776D01*
X162406064Y-43099787D01*
X162335137Y-43456369D01*
X162299500Y-43818209D01*
X155078969Y-43818209D01*
X155119709Y-43692826D01*
X155134662Y-43598417D01*
X155150500Y-43498422D01*
X155150500Y-43301577D01*
X155119709Y-43107173D01*
X155091375Y-43019970D01*
X155058884Y-42919975D01*
X155058882Y-42919972D01*
X155058882Y-42919970D01*
X154969523Y-42744594D01*
X154853828Y-42585354D01*
X154714646Y-42446172D01*
X154555405Y-42330476D01*
X154380029Y-42241117D01*
X154192826Y-42180290D01*
X153998422Y-42149500D01*
X153998417Y-42149500D01*
X153001583Y-42149500D01*
X153001578Y-42149500D01*
X152807173Y-42180290D01*
X152619970Y-42241117D01*
X152444594Y-42330476D01*
X152395640Y-42366044D01*
X152285354Y-42446172D01*
X152285352Y-42446174D01*
X152285351Y-42446174D01*
X152146174Y-42585351D01*
X152146174Y-42585352D01*
X152146172Y-42585354D01*
X152103107Y-42644627D01*
X152030476Y-42744594D01*
X151941117Y-42919970D01*
X151880290Y-43107173D01*
X151849500Y-43301577D01*
X139384661Y-43301577D01*
X139369709Y-43207173D01*
X139337217Y-43107174D01*
X139308884Y-43019975D01*
X139308882Y-43019972D01*
X139308882Y-43019970D01*
X139219523Y-42844594D01*
X139103828Y-42685354D01*
X138964646Y-42546172D01*
X138805405Y-42430476D01*
X138776839Y-42415921D01*
X138630029Y-42341117D01*
X138442826Y-42280290D01*
X138248422Y-42249500D01*
X138248417Y-42249500D01*
X137251583Y-42249500D01*
X137251578Y-42249500D01*
X137057173Y-42280290D01*
X136869970Y-42341117D01*
X136694594Y-42430476D01*
X136603741Y-42496485D01*
X136535354Y-42546172D01*
X136535352Y-42546174D01*
X136535351Y-42546174D01*
X136396174Y-42685351D01*
X136396174Y-42685352D01*
X136396172Y-42685354D01*
X136371134Y-42719816D01*
X136280476Y-42844594D01*
X136191117Y-43019970D01*
X136130290Y-43207173D01*
X136099500Y-43401577D01*
X131000000Y-43401577D01*
X131000000Y-40124500D01*
X131019685Y-40057461D01*
X131072489Y-40011706D01*
X131124000Y-40000500D01*
X166996754Y-40000500D01*
X167003243Y-40000669D01*
G37*
%TD.AperFunction*%
%TD*%
%TA.AperFunction,Conductor*%
%TO.N,GND2*%
G36*
X129943039Y-40020185D02*
G01*
X129988794Y-40072989D01*
X130000000Y-40124500D01*
X130000000Y-60000000D01*
X131076877Y-60000000D01*
X131094523Y-60001262D01*
X131097650Y-60001711D01*
X131124000Y-60005500D01*
X159870500Y-60005500D01*
X159937539Y-60025185D01*
X159983294Y-60077989D01*
X159994500Y-60129500D01*
X159994500Y-74376007D01*
X159999289Y-74420541D01*
X160000000Y-74433797D01*
X160000000Y-75000000D01*
X160576877Y-75000000D01*
X160594523Y-75001262D01*
X160597650Y-75001711D01*
X160624000Y-75005500D01*
X160624003Y-75005500D01*
X169875500Y-75005500D01*
X169942539Y-75025185D01*
X169988294Y-75077989D01*
X169999500Y-75129500D01*
X169999500Y-96996753D01*
X169999330Y-97003244D01*
X169984814Y-97280182D01*
X169984204Y-97287574D01*
X169977187Y-97349856D01*
X169976440Y-97355371D01*
X169938150Y-97597126D01*
X169936569Y-97605319D01*
X169923923Y-97660729D01*
X169922806Y-97665232D01*
X169857719Y-97908138D01*
X169854985Y-97916999D01*
X169840068Y-97959629D01*
X169838791Y-97963111D01*
X169744268Y-98209355D01*
X169740223Y-98218721D01*
X169730309Y-98239307D01*
X169729075Y-98241799D01*
X169600591Y-98493964D01*
X169594105Y-98505197D01*
X169508881Y-98636432D01*
X169430187Y-98757609D01*
X169422558Y-98768109D01*
X169233149Y-99002010D01*
X169224464Y-99011655D01*
X169011655Y-99224464D01*
X169002010Y-99233149D01*
X168768109Y-99422558D01*
X168757609Y-99430187D01*
X168505197Y-99594105D01*
X168493964Y-99600591D01*
X168241799Y-99729075D01*
X168239307Y-99730309D01*
X168218721Y-99740223D01*
X168209355Y-99744268D01*
X167963111Y-99838791D01*
X167959629Y-99840068D01*
X167916999Y-99854985D01*
X167908138Y-99857719D01*
X167665232Y-99922806D01*
X167660729Y-99923923D01*
X167605319Y-99936569D01*
X167597126Y-99938150D01*
X167355371Y-99976440D01*
X167349856Y-99977187D01*
X167287574Y-99984204D01*
X167280182Y-99984814D01*
X167003244Y-99999330D01*
X166996753Y-99999500D01*
X73003246Y-99999500D01*
X72996757Y-99999330D01*
X72986676Y-99998801D01*
X72719816Y-99984814D01*
X72712424Y-99984204D01*
X72650142Y-99977187D01*
X72644627Y-99976440D01*
X72402872Y-99938150D01*
X72394679Y-99936569D01*
X72366044Y-99930033D01*
X72339245Y-99923917D01*
X72334766Y-99922806D01*
X72091860Y-99857719D01*
X72082999Y-99854985D01*
X72040369Y-99840068D01*
X72036887Y-99838791D01*
X71790643Y-99744268D01*
X71781277Y-99740223D01*
X71760691Y-99730309D01*
X71758199Y-99729075D01*
X71506036Y-99600591D01*
X71494796Y-99594101D01*
X71242391Y-99430187D01*
X71231890Y-99422558D01*
X70997989Y-99233149D01*
X70988344Y-99224464D01*
X70775535Y-99011655D01*
X70766850Y-99002010D01*
X70577441Y-98768109D01*
X70569812Y-98757608D01*
X70491119Y-98636432D01*
X70405896Y-98505199D01*
X70399408Y-98493963D01*
X70396424Y-98488106D01*
X70270900Y-98241754D01*
X70269689Y-98239307D01*
X70259775Y-98218721D01*
X70255739Y-98209378D01*
X70161195Y-97963079D01*
X70159930Y-97959629D01*
X70145013Y-97916999D01*
X70142284Y-97908157D01*
X70077179Y-97665181D01*
X70076100Y-97660830D01*
X70063423Y-97605289D01*
X70061848Y-97597126D01*
X70059782Y-97584083D01*
X70023555Y-97355353D01*
X70022811Y-97349856D01*
X70015794Y-97287574D01*
X70015184Y-97280181D01*
X70000670Y-97003243D01*
X70000500Y-96996753D01*
X70000500Y-95818209D01*
X70299500Y-95818209D01*
X70299500Y-96181790D01*
X70335137Y-96543630D01*
X70406064Y-96900212D01*
X70406067Y-96900223D01*
X70511614Y-97248165D01*
X70650754Y-97584078D01*
X70650756Y-97584083D01*
X70822140Y-97904720D01*
X70822151Y-97904738D01*
X71024140Y-98207035D01*
X71024150Y-98207049D01*
X71254807Y-98488106D01*
X71511893Y-98745192D01*
X71511898Y-98745196D01*
X71511899Y-98745197D01*
X71792956Y-98975854D01*
X72095268Y-99177853D01*
X72095277Y-99177858D01*
X72095279Y-99177859D01*
X72415916Y-99349243D01*
X72415918Y-99349243D01*
X72415924Y-99349247D01*
X72751836Y-99488386D01*
X73099767Y-99593930D01*
X73099773Y-99593931D01*
X73099776Y-99593932D01*
X73099787Y-99593935D01*
X73456369Y-99664862D01*
X73818206Y-99700500D01*
X73818209Y-99700500D01*
X74181791Y-99700500D01*
X74181794Y-99700500D01*
X74543631Y-99664862D01*
X74613045Y-99651054D01*
X74900212Y-99593935D01*
X74900223Y-99593932D01*
X74900223Y-99593931D01*
X74900233Y-99593930D01*
X75248164Y-99488386D01*
X75584076Y-99349247D01*
X75904732Y-99177853D01*
X76207044Y-98975854D01*
X76488101Y-98745197D01*
X76745197Y-98488101D01*
X76975854Y-98207044D01*
X77177853Y-97904732D01*
X77349247Y-97584076D01*
X77488386Y-97248164D01*
X77593930Y-96900233D01*
X77593932Y-96900223D01*
X77593935Y-96900212D01*
X77664862Y-96543630D01*
X77678466Y-96405513D01*
X130799500Y-96405513D01*
X130799500Y-96594486D01*
X130829059Y-96781118D01*
X130887454Y-96960836D01*
X130973240Y-97129199D01*
X131084310Y-97282073D01*
X131217927Y-97415690D01*
X131370801Y-97526760D01*
X131450347Y-97567290D01*
X131539163Y-97612545D01*
X131539165Y-97612545D01*
X131539168Y-97612547D01*
X131635497Y-97643846D01*
X131718881Y-97670940D01*
X131905514Y-97700500D01*
X131905519Y-97700500D01*
X132094486Y-97700500D01*
X132281118Y-97670940D01*
X132312544Y-97660729D01*
X132460832Y-97612547D01*
X132629199Y-97526760D01*
X132782073Y-97415690D01*
X132915690Y-97282073D01*
X133026760Y-97129199D01*
X133112547Y-96960832D01*
X133170940Y-96781118D01*
X133200500Y-96594486D01*
X133200500Y-96405513D01*
X141799500Y-96405513D01*
X141799500Y-96594486D01*
X141829059Y-96781118D01*
X141887454Y-96960836D01*
X141973240Y-97129199D01*
X142084310Y-97282073D01*
X142217927Y-97415690D01*
X142370801Y-97526760D01*
X142450347Y-97567290D01*
X142539163Y-97612545D01*
X142539165Y-97612545D01*
X142539168Y-97612547D01*
X142635497Y-97643846D01*
X142718881Y-97670940D01*
X142905514Y-97700500D01*
X142905519Y-97700500D01*
X143094486Y-97700500D01*
X143281118Y-97670940D01*
X143312544Y-97660729D01*
X143460832Y-97612547D01*
X143629199Y-97526760D01*
X143782073Y-97415690D01*
X143915690Y-97282073D01*
X144026760Y-97129199D01*
X144112547Y-96960832D01*
X144170940Y-96781118D01*
X144200500Y-96594486D01*
X144200500Y-96405513D01*
X145799500Y-96405513D01*
X145799500Y-96594486D01*
X145829059Y-96781118D01*
X145887454Y-96960836D01*
X145973240Y-97129199D01*
X146084310Y-97282073D01*
X146217927Y-97415690D01*
X146370801Y-97526760D01*
X146450347Y-97567290D01*
X146539163Y-97612545D01*
X146539165Y-97612545D01*
X146539168Y-97612547D01*
X146635497Y-97643846D01*
X146718881Y-97670940D01*
X146905514Y-97700500D01*
X146905519Y-97700500D01*
X147094486Y-97700500D01*
X147281118Y-97670940D01*
X147312544Y-97660729D01*
X147460832Y-97612547D01*
X147629199Y-97526760D01*
X147782073Y-97415690D01*
X147915690Y-97282073D01*
X148026760Y-97129199D01*
X148112547Y-96960832D01*
X148170940Y-96781118D01*
X148200500Y-96594486D01*
X148200500Y-96405513D01*
X156799500Y-96405513D01*
X156799500Y-96594486D01*
X156829059Y-96781118D01*
X156887454Y-96960836D01*
X156973240Y-97129199D01*
X157084310Y-97282073D01*
X157217927Y-97415690D01*
X157370801Y-97526760D01*
X157450347Y-97567290D01*
X157539163Y-97612545D01*
X157539165Y-97612545D01*
X157539168Y-97612547D01*
X157635497Y-97643846D01*
X157718881Y-97670940D01*
X157905514Y-97700500D01*
X157905519Y-97700500D01*
X158094486Y-97700500D01*
X158281118Y-97670940D01*
X158312544Y-97660729D01*
X158460832Y-97612547D01*
X158629199Y-97526760D01*
X158782073Y-97415690D01*
X158915690Y-97282073D01*
X159026760Y-97129199D01*
X159112547Y-96960832D01*
X159170940Y-96781118D01*
X159200500Y-96594486D01*
X159200500Y-96405513D01*
X159170940Y-96218881D01*
X159112545Y-96039163D01*
X159027094Y-95871457D01*
X159027093Y-95871455D01*
X159026759Y-95870800D01*
X158988549Y-95818209D01*
X162299500Y-95818209D01*
X162299500Y-96181790D01*
X162335137Y-96543630D01*
X162406064Y-96900212D01*
X162406067Y-96900223D01*
X162511614Y-97248165D01*
X162650754Y-97584078D01*
X162650756Y-97584083D01*
X162822140Y-97904720D01*
X162822151Y-97904738D01*
X163024140Y-98207035D01*
X163024150Y-98207049D01*
X163254807Y-98488106D01*
X163511893Y-98745192D01*
X163511898Y-98745196D01*
X163511899Y-98745197D01*
X163792956Y-98975854D01*
X164095268Y-99177853D01*
X164095277Y-99177858D01*
X164095279Y-99177859D01*
X164415916Y-99349243D01*
X164415918Y-99349243D01*
X164415924Y-99349247D01*
X164751836Y-99488386D01*
X165099767Y-99593930D01*
X165099773Y-99593931D01*
X165099776Y-99593932D01*
X165099787Y-99593935D01*
X165456369Y-99664862D01*
X165818206Y-99700500D01*
X165818209Y-99700500D01*
X166181791Y-99700500D01*
X166181794Y-99700500D01*
X166543631Y-99664862D01*
X166613045Y-99651054D01*
X166900212Y-99593935D01*
X166900223Y-99593932D01*
X166900223Y-99593931D01*
X166900233Y-99593930D01*
X167248164Y-99488386D01*
X167584076Y-99349247D01*
X167904732Y-99177853D01*
X168207044Y-98975854D01*
X168488101Y-98745197D01*
X168745197Y-98488101D01*
X168975854Y-98207044D01*
X169177853Y-97904732D01*
X169349247Y-97584076D01*
X169488386Y-97248164D01*
X169593930Y-96900233D01*
X169593932Y-96900223D01*
X169593935Y-96900212D01*
X169664862Y-96543630D01*
X169700500Y-96181790D01*
X169700500Y-95818209D01*
X169664862Y-95456369D01*
X169593935Y-95099787D01*
X169593932Y-95099776D01*
X169593931Y-95099773D01*
X169593930Y-95099767D01*
X169488386Y-94751836D01*
X169349247Y-94415924D01*
X169177853Y-94095268D01*
X168975854Y-93792956D01*
X168745197Y-93511899D01*
X168745196Y-93511898D01*
X168745192Y-93511893D01*
X168488106Y-93254807D01*
X168207049Y-93024150D01*
X168207048Y-93024149D01*
X168207044Y-93024146D01*
X167904732Y-92822147D01*
X167904727Y-92822144D01*
X167904720Y-92822140D01*
X167584083Y-92650756D01*
X167584078Y-92650754D01*
X167575256Y-92647100D01*
X167485690Y-92610000D01*
X167248165Y-92511614D01*
X166900223Y-92406067D01*
X166900212Y-92406064D01*
X166543630Y-92335137D01*
X166271111Y-92308296D01*
X166181794Y-92299500D01*
X165818206Y-92299500D01*
X165735679Y-92307628D01*
X165456369Y-92335137D01*
X165099787Y-92406064D01*
X165099776Y-92406067D01*
X164751834Y-92511614D01*
X164415921Y-92650754D01*
X164415916Y-92650756D01*
X164095279Y-92822140D01*
X164095261Y-92822151D01*
X163792964Y-93024140D01*
X163792950Y-93024150D01*
X163511893Y-93254807D01*
X163254807Y-93511893D01*
X163024150Y-93792950D01*
X163024140Y-93792964D01*
X162822151Y-94095261D01*
X162822140Y-94095279D01*
X162650756Y-94415916D01*
X162650754Y-94415921D01*
X162511614Y-94751834D01*
X162406067Y-95099776D01*
X162406064Y-95099787D01*
X162335137Y-95456369D01*
X162299500Y-95818209D01*
X158988549Y-95818209D01*
X158988547Y-95818206D01*
X158915690Y-95717927D01*
X158782073Y-95584310D01*
X158629199Y-95473240D01*
X158596088Y-95456369D01*
X158460836Y-95387454D01*
X158281118Y-95329059D01*
X158094486Y-95299500D01*
X158094481Y-95299500D01*
X157905519Y-95299500D01*
X157905514Y-95299500D01*
X157718881Y-95329059D01*
X157539163Y-95387454D01*
X157370800Y-95473240D01*
X157283579Y-95536610D01*
X157217927Y-95584310D01*
X157217925Y-95584312D01*
X157217924Y-95584312D01*
X157084312Y-95717924D01*
X157084312Y-95717925D01*
X157084310Y-95717927D01*
X157036610Y-95783579D01*
X156973240Y-95870800D01*
X156887454Y-96039163D01*
X156829059Y-96218881D01*
X156799500Y-96405513D01*
X148200500Y-96405513D01*
X148170940Y-96218881D01*
X148112545Y-96039163D01*
X148026759Y-95870800D01*
X147988547Y-95818206D01*
X147915690Y-95717927D01*
X147782073Y-95584310D01*
X147629199Y-95473240D01*
X147596088Y-95456369D01*
X147460836Y-95387454D01*
X147281118Y-95329059D01*
X147094486Y-95299500D01*
X147094481Y-95299500D01*
X146905519Y-95299500D01*
X146905514Y-95299500D01*
X146718881Y-95329059D01*
X146539163Y-95387454D01*
X146370800Y-95473240D01*
X146283579Y-95536610D01*
X146217927Y-95584310D01*
X146217925Y-95584312D01*
X146217924Y-95584312D01*
X146084312Y-95717924D01*
X146084312Y-95717925D01*
X146084310Y-95717927D01*
X146036610Y-95783579D01*
X145973240Y-95870800D01*
X145887454Y-96039163D01*
X145829059Y-96218881D01*
X145799500Y-96405513D01*
X144200500Y-96405513D01*
X144170940Y-96218881D01*
X144112545Y-96039163D01*
X144026759Y-95870800D01*
X143988547Y-95818206D01*
X143915690Y-95717927D01*
X143782073Y-95584310D01*
X143629199Y-95473240D01*
X143596088Y-95456369D01*
X143460836Y-95387454D01*
X143281118Y-95329059D01*
X143094486Y-95299500D01*
X143094481Y-95299500D01*
X142905519Y-95299500D01*
X142905514Y-95299500D01*
X142718881Y-95329059D01*
X142539163Y-95387454D01*
X142370800Y-95473240D01*
X142283579Y-95536610D01*
X142217927Y-95584310D01*
X142217925Y-95584312D01*
X142217924Y-95584312D01*
X142084312Y-95717924D01*
X142084312Y-95717925D01*
X142084310Y-95717927D01*
X142036610Y-95783579D01*
X141973240Y-95870800D01*
X141887454Y-96039163D01*
X141829059Y-96218881D01*
X141799500Y-96405513D01*
X133200500Y-96405513D01*
X133170940Y-96218881D01*
X133112545Y-96039163D01*
X133026759Y-95870800D01*
X132988547Y-95818206D01*
X132915690Y-95717927D01*
X132782073Y-95584310D01*
X132629199Y-95473240D01*
X132596088Y-95456369D01*
X132460836Y-95387454D01*
X132281118Y-95329059D01*
X132094486Y-95299500D01*
X132094481Y-95299500D01*
X131905519Y-95299500D01*
X131905514Y-95299500D01*
X131718881Y-95329059D01*
X131539163Y-95387454D01*
X131370800Y-95473240D01*
X131283579Y-95536610D01*
X131217927Y-95584310D01*
X131217925Y-95584312D01*
X131217924Y-95584312D01*
X131084312Y-95717924D01*
X131084312Y-95717925D01*
X131084310Y-95717927D01*
X131036610Y-95783579D01*
X130973240Y-95870800D01*
X130887454Y-96039163D01*
X130829059Y-96218881D01*
X130799500Y-96405513D01*
X77678466Y-96405513D01*
X77680142Y-96388493D01*
X77700500Y-96181790D01*
X77700500Y-95818209D01*
X77664862Y-95456369D01*
X77593935Y-95099787D01*
X77593932Y-95099776D01*
X77593931Y-95099773D01*
X77593930Y-95099767D01*
X77488386Y-94751836D01*
X77349247Y-94415924D01*
X77177853Y-94095268D01*
X76975854Y-93792956D01*
X76745197Y-93511899D01*
X76745196Y-93511898D01*
X76745192Y-93511893D01*
X76488106Y-93254807D01*
X76207049Y-93024150D01*
X76207048Y-93024149D01*
X76207044Y-93024146D01*
X75904732Y-92822147D01*
X75904727Y-92822144D01*
X75904720Y-92822140D01*
X75584083Y-92650756D01*
X75584078Y-92650754D01*
X75575256Y-92647100D01*
X75485690Y-92610000D01*
X75248165Y-92511614D01*
X74900223Y-92406067D01*
X74900212Y-92406064D01*
X74543630Y-92335137D01*
X74271111Y-92308296D01*
X74181794Y-92299500D01*
X73818206Y-92299500D01*
X73735679Y-92307628D01*
X73456369Y-92335137D01*
X73099787Y-92406064D01*
X73099776Y-92406067D01*
X72751834Y-92511614D01*
X72415921Y-92650754D01*
X72415916Y-92650756D01*
X72095279Y-92822140D01*
X72095261Y-92822151D01*
X71792964Y-93024140D01*
X71792950Y-93024150D01*
X71511893Y-93254807D01*
X71254807Y-93511893D01*
X71024150Y-93792950D01*
X71024140Y-93792964D01*
X70822151Y-94095261D01*
X70822140Y-94095279D01*
X70650756Y-94415916D01*
X70650754Y-94415921D01*
X70511614Y-94751834D01*
X70406067Y-95099776D01*
X70406064Y-95099787D01*
X70335137Y-95456369D01*
X70299500Y-95818209D01*
X70000500Y-95818209D01*
X70000500Y-91657904D01*
X100740100Y-91657904D01*
X100740100Y-91835295D01*
X100774703Y-92009258D01*
X100774706Y-92009267D01*
X100842583Y-92173140D01*
X100842590Y-92173153D01*
X100941135Y-92320634D01*
X100941138Y-92320638D01*
X101066561Y-92446061D01*
X101066565Y-92446064D01*
X101214046Y-92544609D01*
X101214059Y-92544616D01*
X101336963Y-92595523D01*
X101377934Y-92612494D01*
X101377936Y-92612494D01*
X101377941Y-92612496D01*
X101551904Y-92647099D01*
X101551907Y-92647100D01*
X101551909Y-92647100D01*
X101729293Y-92647100D01*
X101729294Y-92647099D01*
X101787282Y-92635564D01*
X101903258Y-92612496D01*
X101903261Y-92612494D01*
X101903266Y-92612494D01*
X102067147Y-92544613D01*
X102214635Y-92446064D01*
X102340064Y-92320635D01*
X102438613Y-92173147D01*
X102506494Y-92009266D01*
X102541100Y-91835291D01*
X102541100Y-91782045D01*
X102560785Y-91715006D01*
X102577418Y-91694364D01*
X102891249Y-91380528D01*
X102896266Y-91375784D01*
X103067674Y-91222607D01*
X103078532Y-91213948D01*
X103263163Y-91082947D01*
X103274911Y-91075566D01*
X103473047Y-90966060D01*
X103485562Y-90960033D01*
X103694704Y-90873407D01*
X103707823Y-90868816D01*
X103925343Y-90806151D01*
X103938893Y-90803059D01*
X104162068Y-90765144D01*
X104175858Y-90763590D01*
X104405807Y-90750679D01*
X104412752Y-90750485D01*
X104427448Y-90750485D01*
X104484781Y-90750486D01*
X104484783Y-90750485D01*
X108112036Y-90750495D01*
X108112096Y-90750500D01*
X108118844Y-90750500D01*
X108242056Y-90750500D01*
X108495139Y-90750500D01*
X108562178Y-90770185D01*
X108582821Y-90786820D01*
X108620461Y-90824461D01*
X108620465Y-90824464D01*
X108767946Y-90923009D01*
X108767959Y-90923016D01*
X108863757Y-90962696D01*
X108931834Y-90990894D01*
X108931836Y-90990894D01*
X108931841Y-90990896D01*
X109105804Y-91025499D01*
X109105807Y-91025500D01*
X109105809Y-91025500D01*
X109283193Y-91025500D01*
X109283194Y-91025499D01*
X109341182Y-91013964D01*
X109457158Y-90990896D01*
X109457161Y-90990894D01*
X109457166Y-90990894D01*
X109621047Y-90923013D01*
X109768535Y-90824464D01*
X109893964Y-90699035D01*
X109992513Y-90551547D01*
X110060394Y-90387666D01*
X110062794Y-90375604D01*
X110094999Y-90213695D01*
X110095000Y-90213693D01*
X110095000Y-90036306D01*
X110094999Y-90036304D01*
X110060396Y-89862341D01*
X110060393Y-89862332D01*
X109992516Y-89698459D01*
X109992509Y-89698446D01*
X109893964Y-89550965D01*
X109893961Y-89550961D01*
X109768538Y-89425538D01*
X109768534Y-89425535D01*
X109621053Y-89326990D01*
X109621040Y-89326983D01*
X109457167Y-89259106D01*
X109457158Y-89259103D01*
X109283194Y-89224500D01*
X109283191Y-89224500D01*
X109105809Y-89224500D01*
X109105806Y-89224500D01*
X108931841Y-89259103D01*
X108931832Y-89259106D01*
X108767959Y-89326983D01*
X108767946Y-89326990D01*
X108620468Y-89425533D01*
X108620462Y-89425538D01*
X108582820Y-89463179D01*
X108521496Y-89496663D01*
X108495141Y-89499496D01*
X104427470Y-89499485D01*
X104408850Y-89499485D01*
X104347237Y-89499485D01*
X104341655Y-89499485D01*
X104341166Y-89499507D01*
X104242130Y-89499507D01*
X104242129Y-89499507D01*
X104242126Y-89499507D01*
X104124756Y-89511065D01*
X103910296Y-89532185D01*
X103910293Y-89532185D01*
X103583235Y-89597237D01*
X103583233Y-89597237D01*
X103264156Y-89694025D01*
X103264154Y-89694025D01*
X103264150Y-89694027D01*
X103097955Y-89762865D01*
X102956082Y-89821630D01*
X102662004Y-89978816D01*
X102384746Y-90164072D01*
X102126993Y-90375604D01*
X102054656Y-90447939D01*
X102009101Y-90493493D01*
X102009102Y-90493494D01*
X102009101Y-90493495D01*
X101955397Y-90547200D01*
X101955396Y-90547201D01*
X101692820Y-90809781D01*
X101631497Y-90843266D01*
X101605138Y-90846100D01*
X101551906Y-90846100D01*
X101377941Y-90880703D01*
X101377932Y-90880706D01*
X101214059Y-90948583D01*
X101214046Y-90948590D01*
X101066565Y-91047135D01*
X101066561Y-91047138D01*
X100941138Y-91172561D01*
X100941135Y-91172565D01*
X100842590Y-91320046D01*
X100842583Y-91320059D01*
X100774706Y-91483932D01*
X100774703Y-91483941D01*
X100740100Y-91657904D01*
X70000500Y-91657904D01*
X70000500Y-88405513D01*
X72299500Y-88405513D01*
X72299500Y-88594486D01*
X72329059Y-88781118D01*
X72387454Y-88960836D01*
X72473240Y-89129199D01*
X72584310Y-89282073D01*
X72717927Y-89415690D01*
X72870801Y-89526760D01*
X72950347Y-89567290D01*
X73039163Y-89612545D01*
X73039165Y-89612545D01*
X73039168Y-89612547D01*
X73135497Y-89643846D01*
X73218881Y-89670940D01*
X73405514Y-89700500D01*
X73405519Y-89700500D01*
X73594486Y-89700500D01*
X73781118Y-89670940D01*
X73960832Y-89612547D01*
X74129199Y-89526760D01*
X74282073Y-89415690D01*
X74415690Y-89282073D01*
X74526760Y-89129199D01*
X74612547Y-88960832D01*
X74670940Y-88781118D01*
X74681888Y-88711993D01*
X74700500Y-88594486D01*
X74700500Y-88405513D01*
X74670940Y-88218881D01*
X74612545Y-88039163D01*
X74526759Y-87870800D01*
X74498351Y-87831700D01*
X74415690Y-87717927D01*
X74282073Y-87584310D01*
X74129199Y-87473240D01*
X73960836Y-87387454D01*
X73781118Y-87329059D01*
X73594486Y-87299500D01*
X73594481Y-87299500D01*
X73405519Y-87299500D01*
X73405514Y-87299500D01*
X73218881Y-87329059D01*
X73039163Y-87387454D01*
X72870800Y-87473240D01*
X72783579Y-87536610D01*
X72717927Y-87584310D01*
X72717925Y-87584312D01*
X72717924Y-87584312D01*
X72584312Y-87717924D01*
X72584312Y-87717925D01*
X72584310Y-87717927D01*
X72576108Y-87729216D01*
X72473240Y-87870800D01*
X72387454Y-88039163D01*
X72329059Y-88218881D01*
X72299500Y-88405513D01*
X70000500Y-88405513D01*
X70000500Y-84454747D01*
X76249500Y-84454747D01*
X76249500Y-86545238D01*
X76249501Y-86545253D01*
X76257548Y-86647499D01*
X76260070Y-86679553D01*
X76301131Y-86842506D01*
X76315949Y-86901315D01*
X76410528Y-87109537D01*
X76410531Y-87109543D01*
X76540759Y-87297514D01*
X76540763Y-87297519D01*
X76540766Y-87297523D01*
X76702477Y-87459234D01*
X76702481Y-87459237D01*
X76702485Y-87459240D01*
X76890456Y-87589468D01*
X76890462Y-87589471D01*
X76890463Y-87589471D01*
X76890464Y-87589472D01*
X77098684Y-87684051D01*
X77320447Y-87739930D01*
X77454753Y-87750500D01*
X79545246Y-87750499D01*
X79679553Y-87739930D01*
X79901316Y-87684051D01*
X80109536Y-87589472D01*
X80109538Y-87589470D01*
X80109543Y-87589468D01*
X80256756Y-87487477D01*
X80297523Y-87459234D01*
X80459234Y-87297523D01*
X80509505Y-87224961D01*
X80589468Y-87109543D01*
X80589471Y-87109537D01*
X80589472Y-87109536D01*
X80684051Y-86901316D01*
X80739930Y-86679553D01*
X80750500Y-86545247D01*
X80750499Y-84953802D01*
X112099500Y-84953802D01*
X112099500Y-85131193D01*
X112134103Y-85305156D01*
X112134106Y-85305165D01*
X112201983Y-85469038D01*
X112201990Y-85469051D01*
X112300535Y-85616532D01*
X112300538Y-85616536D01*
X112425961Y-85741959D01*
X112425965Y-85741962D01*
X112573446Y-85840507D01*
X112573459Y-85840514D01*
X112696363Y-85891421D01*
X112737334Y-85908392D01*
X112737336Y-85908392D01*
X112737341Y-85908394D01*
X112911304Y-85942997D01*
X112911307Y-85942998D01*
X112911309Y-85942998D01*
X113088693Y-85942998D01*
X113088694Y-85942997D01*
X113146682Y-85931462D01*
X113262658Y-85908394D01*
X113262661Y-85908392D01*
X113262666Y-85908392D01*
X113426547Y-85840511D01*
X113574035Y-85741962D01*
X113699464Y-85616533D01*
X113798013Y-85469045D01*
X113865894Y-85305164D01*
X113875659Y-85256076D01*
X113890737Y-85180269D01*
X113900500Y-85131189D01*
X113900500Y-84953807D01*
X113900500Y-84953804D01*
X113900499Y-84953802D01*
X113865896Y-84779839D01*
X113865893Y-84779830D01*
X113798016Y-84615957D01*
X113798009Y-84615944D01*
X113699464Y-84468463D01*
X113699461Y-84468459D01*
X113655119Y-84424117D01*
X113640415Y-84397189D01*
X113623823Y-84371371D01*
X113622931Y-84365170D01*
X113621634Y-84362794D01*
X113618800Y-84336436D01*
X113618800Y-84335563D01*
X113638485Y-84268524D01*
X113691289Y-84222769D01*
X113760447Y-84212825D01*
X113824003Y-84241850D01*
X113830472Y-84247872D01*
X114150485Y-84567876D01*
X114339537Y-84756922D01*
X114339543Y-84756933D01*
X114370885Y-84788273D01*
X114370885Y-84788274D01*
X114436765Y-84854150D01*
X114436769Y-84854153D01*
X114436770Y-84854154D01*
X114584593Y-84967578D01*
X114745955Y-85060736D01*
X114745964Y-85060741D01*
X114918112Y-85132044D01*
X115041043Y-85164982D01*
X115098090Y-85180268D01*
X115098092Y-85180268D01*
X115098095Y-85180269D01*
X115206948Y-85194599D01*
X115282832Y-85204589D01*
X115282833Y-85204589D01*
X115300049Y-85204589D01*
X115324633Y-85204589D01*
X115324643Y-85204592D01*
X115375998Y-85204592D01*
X115469165Y-85204592D01*
X115506111Y-85199728D01*
X115653902Y-85180272D01*
X115756214Y-85152858D01*
X115833880Y-85132050D01*
X115833882Y-85132048D01*
X115833886Y-85132048D01*
X116006036Y-85060744D01*
X116167406Y-84967582D01*
X116315236Y-84854153D01*
X116328335Y-84841054D01*
X116331837Y-84837553D01*
X116331852Y-84837545D01*
X116349231Y-84820166D01*
X116349336Y-84820108D01*
X116385579Y-84783863D01*
X116385580Y-84783864D01*
X116452160Y-84717282D01*
X116566799Y-84567876D01*
X116660955Y-84404785D01*
X116674795Y-84371371D01*
X116733012Y-84230809D01*
X116733012Y-84230808D01*
X116733016Y-84230799D01*
X116781750Y-84048894D01*
X116806322Y-83862185D01*
X116806318Y-83768026D01*
X116806317Y-83764728D01*
X116806300Y-77305269D01*
X116806865Y-77303342D01*
X116806360Y-77301397D01*
X116816667Y-77269960D01*
X116825984Y-77238231D01*
X116827502Y-77236915D01*
X116828129Y-77235005D01*
X116853796Y-77214131D01*
X116878788Y-77192476D01*
X116880776Y-77192190D01*
X116882336Y-77190922D01*
X116915209Y-77187239D01*
X116947947Y-77182532D01*
X116949774Y-77183366D01*
X116951772Y-77183143D01*
X116981420Y-77197819D01*
X117011502Y-77211557D01*
X117013157Y-77213528D01*
X117014390Y-77214139D01*
X117036658Y-77241521D01*
X117085568Y-77323122D01*
X117091304Y-77333854D01*
X117204627Y-77573453D01*
X117213876Y-77593007D01*
X117218533Y-77604249D01*
X117315114Y-77874172D01*
X117318647Y-77885816D01*
X117388311Y-78163919D01*
X117390685Y-78175855D01*
X117432751Y-78459432D01*
X117433944Y-78471541D01*
X117448150Y-78760629D01*
X117448299Y-78766715D01*
X117448299Y-86231838D01*
X117428614Y-86298877D01*
X117411982Y-86319517D01*
X117374338Y-86357162D01*
X117374333Y-86357168D01*
X117275790Y-86504646D01*
X117275783Y-86504659D01*
X117207906Y-86668532D01*
X117207903Y-86668541D01*
X117173300Y-86842504D01*
X117173300Y-87019895D01*
X117207903Y-87193858D01*
X117207906Y-87193867D01*
X117275783Y-87357740D01*
X117275790Y-87357753D01*
X117374335Y-87505234D01*
X117374338Y-87505238D01*
X117499761Y-87630661D01*
X117499765Y-87630664D01*
X117647246Y-87729209D01*
X117647259Y-87729216D01*
X117770163Y-87780123D01*
X117811134Y-87797094D01*
X117811136Y-87797094D01*
X117811141Y-87797096D01*
X117985104Y-87831699D01*
X117985107Y-87831700D01*
X117985109Y-87831700D01*
X118162493Y-87831700D01*
X118162494Y-87831699D01*
X118220482Y-87820164D01*
X118336458Y-87797096D01*
X118336461Y-87797094D01*
X118336466Y-87797094D01*
X118500347Y-87729213D01*
X118647835Y-87630664D01*
X118773264Y-87505235D01*
X118871813Y-87357747D01*
X118939694Y-87193866D01*
X118974300Y-87019891D01*
X118974300Y-86842509D01*
X118974300Y-86842506D01*
X118974299Y-86842504D01*
X118939696Y-86668541D01*
X118939693Y-86668532D01*
X118871816Y-86504659D01*
X118871809Y-86504646D01*
X118816416Y-86421745D01*
X118816411Y-86421739D01*
X118773264Y-86357165D01*
X118768585Y-86352486D01*
X137749500Y-86352486D01*
X137749500Y-86647513D01*
X137775172Y-86842504D01*
X137788007Y-86939993D01*
X137856032Y-87193866D01*
X137864361Y-87224951D01*
X137864364Y-87224961D01*
X137977254Y-87497500D01*
X137977258Y-87497510D01*
X138124761Y-87752993D01*
X138304352Y-87987040D01*
X138304358Y-87987047D01*
X138512952Y-88195641D01*
X138512959Y-88195647D01*
X138747006Y-88375238D01*
X139002489Y-88522741D01*
X139002490Y-88522741D01*
X139002493Y-88522743D01*
X139275048Y-88635639D01*
X139560007Y-88711993D01*
X139852494Y-88750500D01*
X139852501Y-88750500D01*
X140147499Y-88750500D01*
X140147506Y-88750500D01*
X140439993Y-88711993D01*
X140724952Y-88635639D01*
X140997507Y-88522743D01*
X141252994Y-88375238D01*
X141487042Y-88195646D01*
X141695646Y-87987042D01*
X141875238Y-87752994D01*
X142022743Y-87497507D01*
X142135639Y-87224952D01*
X142211993Y-86939993D01*
X142250500Y-86647506D01*
X142250500Y-86352494D01*
X142250499Y-86352486D01*
X152749500Y-86352486D01*
X152749500Y-86647513D01*
X152775172Y-86842504D01*
X152788007Y-86939993D01*
X152856032Y-87193866D01*
X152864361Y-87224951D01*
X152864364Y-87224961D01*
X152977254Y-87497500D01*
X152977258Y-87497510D01*
X153124761Y-87752993D01*
X153304352Y-87987040D01*
X153304358Y-87987047D01*
X153512952Y-88195641D01*
X153512959Y-88195647D01*
X153747006Y-88375238D01*
X154002489Y-88522741D01*
X154002490Y-88522741D01*
X154002493Y-88522743D01*
X154275048Y-88635639D01*
X154560007Y-88711993D01*
X154852494Y-88750500D01*
X154852501Y-88750500D01*
X155147499Y-88750500D01*
X155147506Y-88750500D01*
X155439993Y-88711993D01*
X155724952Y-88635639D01*
X155997507Y-88522743D01*
X156252994Y-88375238D01*
X156487042Y-88195646D01*
X156695646Y-87987042D01*
X156875238Y-87752994D01*
X157022743Y-87497507D01*
X157135639Y-87224952D01*
X157211993Y-86939993D01*
X157250500Y-86647506D01*
X157250500Y-86352494D01*
X157211993Y-86060007D01*
X157135639Y-85775048D01*
X157022743Y-85502493D01*
X157022738Y-85502485D01*
X156875238Y-85247006D01*
X156695647Y-85012959D01*
X156695641Y-85012952D01*
X156487047Y-84804358D01*
X156487040Y-84804352D01*
X156252993Y-84624761D01*
X155997510Y-84477258D01*
X155997500Y-84477254D01*
X155724961Y-84364364D01*
X155724954Y-84364362D01*
X155724952Y-84364361D01*
X155439993Y-84288007D01*
X155391113Y-84281571D01*
X155147513Y-84249500D01*
X155147506Y-84249500D01*
X154852494Y-84249500D01*
X154852486Y-84249500D01*
X154574085Y-84286153D01*
X154560007Y-84288007D01*
X154280896Y-84362794D01*
X154275048Y-84364361D01*
X154275038Y-84364364D01*
X154002499Y-84477254D01*
X154002489Y-84477258D01*
X153747006Y-84624761D01*
X153512959Y-84804352D01*
X153512952Y-84804358D01*
X153304358Y-85012952D01*
X153304352Y-85012959D01*
X153124761Y-85247006D01*
X152977258Y-85502489D01*
X152977254Y-85502499D01*
X152864364Y-85775038D01*
X152864361Y-85775048D01*
X152788008Y-86060004D01*
X152788006Y-86060015D01*
X152749500Y-86352486D01*
X142250499Y-86352486D01*
X142211993Y-86060007D01*
X142135639Y-85775048D01*
X142022743Y-85502493D01*
X142022741Y-85502489D01*
X142022739Y-85502485D01*
X141919172Y-85323103D01*
X141914960Y-85306007D01*
X141906263Y-85291185D01*
X141902661Y-85256076D01*
X141903029Y-85247006D01*
X141903434Y-85237021D01*
X141912772Y-85194599D01*
X141918709Y-85180268D01*
X141949233Y-85106577D01*
X141987682Y-84913283D01*
X141987682Y-84272441D01*
X141987716Y-84269642D01*
X141992251Y-84080114D01*
X141992367Y-84073438D01*
X141992370Y-84073158D01*
X141989501Y-84013696D01*
X141989500Y-84013692D01*
X141989500Y-84013690D01*
X141989058Y-84010744D01*
X141987683Y-83992331D01*
X141987683Y-83749310D01*
X141987700Y-73766061D01*
X141987699Y-73766058D01*
X141987700Y-73766058D01*
X141949251Y-73572768D01*
X141949249Y-73572761D01*
X141873836Y-73390694D01*
X141873833Y-73390688D01*
X141873833Y-73390687D01*
X141836513Y-73334833D01*
X141764340Y-73226818D01*
X141624986Y-73087464D01*
X141624982Y-73087461D01*
X141461121Y-72977972D01*
X141461111Y-72977967D01*
X141279037Y-72902549D01*
X141279031Y-72902547D01*
X141085745Y-72864100D01*
X141085743Y-72864100D01*
X140888661Y-72864100D01*
X140888659Y-72864100D01*
X140695368Y-72902548D01*
X140695361Y-72902550D01*
X140513294Y-72977963D01*
X140513281Y-72977970D01*
X140349418Y-73087459D01*
X140210064Y-73226813D01*
X140210061Y-73226817D01*
X140100572Y-73390678D01*
X140100567Y-73390688D01*
X140025149Y-73572762D01*
X140025147Y-73572768D01*
X139986699Y-73766054D01*
X139986683Y-84001846D01*
X139985865Y-84016067D01*
X139985256Y-84021340D01*
X139981888Y-84037916D01*
X139980431Y-84063136D01*
X139980024Y-84066663D01*
X139967728Y-84095701D01*
X139957116Y-84125387D01*
X139953479Y-84129352D01*
X139952781Y-84131002D01*
X139950603Y-84132488D01*
X139938178Y-84146039D01*
X139922270Y-84159863D01*
X139902275Y-84174031D01*
X139839991Y-84209484D01*
X139822194Y-84217822D01*
X139700632Y-84263413D01*
X139687898Y-84267421D01*
X139673857Y-84271023D01*
X139665104Y-84273268D01*
X139650485Y-84276094D01*
X139560013Y-84288006D01*
X139560009Y-84288006D01*
X139560007Y-84288007D01*
X139560004Y-84288007D01*
X139560003Y-84288008D01*
X139275048Y-84364361D01*
X139275038Y-84364364D01*
X139002499Y-84477254D01*
X139002489Y-84477258D01*
X138747006Y-84624761D01*
X138512959Y-84804352D01*
X138512952Y-84804358D01*
X138304358Y-85012952D01*
X138304352Y-85012959D01*
X138124761Y-85247006D01*
X137977258Y-85502489D01*
X137977254Y-85502499D01*
X137864364Y-85775038D01*
X137864361Y-85775048D01*
X137788008Y-86060004D01*
X137788006Y-86060015D01*
X137749500Y-86352486D01*
X118768585Y-86352486D01*
X118730759Y-86314660D01*
X118726466Y-86309293D01*
X118715713Y-86283065D01*
X118702133Y-86258195D01*
X118700929Y-86247006D01*
X118699962Y-86244645D01*
X118700412Y-86242196D01*
X118699299Y-86231837D01*
X118699299Y-78839908D01*
X118699300Y-78839905D01*
X118699299Y-78815334D01*
X118699314Y-78815282D01*
X118699312Y-78624762D01*
X118699312Y-78576368D01*
X118666610Y-78202621D01*
X118601458Y-77833147D01*
X118504354Y-77470756D01*
X118376034Y-77118208D01*
X118217477Y-76778185D01*
X118029888Y-76453275D01*
X117814696Y-76145950D01*
X117814695Y-76145949D01*
X117814691Y-76145943D01*
X117612373Y-75904832D01*
X117573538Y-75858550D01*
X117491530Y-75776542D01*
X117491525Y-75776534D01*
X117491525Y-75776535D01*
X116914247Y-75199257D01*
X116880762Y-75137934D01*
X116885746Y-75068242D01*
X116927618Y-75012309D01*
X116993082Y-74987892D01*
X117026114Y-74989958D01*
X117106221Y-75005893D01*
X117121880Y-75010089D01*
X117286328Y-75065913D01*
X117301311Y-75072119D01*
X117457062Y-75148927D01*
X117471109Y-75157037D01*
X117615505Y-75253521D01*
X117628367Y-75263390D01*
X117654984Y-75286732D01*
X117762116Y-75380684D01*
X117768038Y-75386230D01*
X117878981Y-75497172D01*
X117892902Y-75522667D01*
X117909270Y-75546657D01*
X117909443Y-75552959D01*
X117912466Y-75558495D01*
X117915300Y-75584854D01*
X117915300Y-75638095D01*
X117949903Y-75812058D01*
X117949906Y-75812067D01*
X118017783Y-75975940D01*
X118017790Y-75975953D01*
X118116335Y-76123434D01*
X118116338Y-76123438D01*
X118241761Y-76248861D01*
X118241765Y-76248864D01*
X118389246Y-76347409D01*
X118389259Y-76347416D01*
X118512163Y-76398323D01*
X118553134Y-76415294D01*
X118553136Y-76415294D01*
X118553141Y-76415296D01*
X118727104Y-76449899D01*
X118727107Y-76449900D01*
X118727109Y-76449900D01*
X118904493Y-76449900D01*
X118904494Y-76449899D01*
X118962482Y-76438364D01*
X119078458Y-76415296D01*
X119078461Y-76415294D01*
X119078466Y-76415294D01*
X119242347Y-76347413D01*
X119389835Y-76248864D01*
X119515264Y-76123435D01*
X119613813Y-75975947D01*
X119681694Y-75812066D01*
X119687524Y-75782760D01*
X119716299Y-75638095D01*
X119716300Y-75638093D01*
X119716300Y-75460706D01*
X119716299Y-75460704D01*
X119681696Y-75286741D01*
X119681693Y-75286732D01*
X119672025Y-75263392D01*
X119642168Y-75191309D01*
X119613816Y-75122859D01*
X119613809Y-75122846D01*
X119515264Y-74975365D01*
X119515261Y-74975361D01*
X119389838Y-74849938D01*
X119389834Y-74849935D01*
X119242353Y-74751390D01*
X119242340Y-74751383D01*
X119189165Y-74729358D01*
X119134761Y-74685517D01*
X119112696Y-74619223D01*
X119129975Y-74551524D01*
X119181112Y-74503913D01*
X119212425Y-74493180D01*
X119261312Y-74483456D01*
X119362157Y-74463397D01*
X119362160Y-74463395D01*
X119362165Y-74463395D01*
X119526046Y-74395514D01*
X119673534Y-74296965D01*
X119798963Y-74171536D01*
X119897512Y-74024048D01*
X119965393Y-73860167D01*
X119969266Y-73840700D01*
X119995859Y-73707003D01*
X119999999Y-73686192D01*
X119999999Y-73508810D01*
X119999999Y-73508807D01*
X119999998Y-73508805D01*
X119965395Y-73334842D01*
X119965392Y-73334833D01*
X119897515Y-73170960D01*
X119897508Y-73170947D01*
X119798963Y-73023466D01*
X119798960Y-73023462D01*
X119698818Y-72923320D01*
X119665333Y-72861997D01*
X119662499Y-72835639D01*
X119662499Y-65663615D01*
X119662500Y-65663611D01*
X119662499Y-65639033D01*
X119662511Y-65638991D01*
X119662511Y-65587662D01*
X119662512Y-65587662D01*
X119662511Y-65399550D01*
X119632990Y-65024487D01*
X119574133Y-64652895D01*
X119486303Y-64287067D01*
X119370042Y-63929258D01*
X119368675Y-63925959D01*
X119241051Y-63617850D01*
X119226066Y-63581673D01*
X119055263Y-63246456D01*
X119055260Y-63246450D01*
X119055253Y-63246439D01*
X118880234Y-62960836D01*
X118858686Y-62925673D01*
X118833276Y-62890700D01*
X118637547Y-62621303D01*
X118416268Y-62362219D01*
X118393209Y-62335220D01*
X118260194Y-62202205D01*
X118206490Y-62148500D01*
X118206487Y-62148498D01*
X117535619Y-61477629D01*
X117502134Y-61416306D01*
X117499300Y-61389948D01*
X117499300Y-61336706D01*
X117499299Y-61336704D01*
X117464696Y-61162741D01*
X117464693Y-61162732D01*
X117464102Y-61161306D01*
X117442659Y-61109536D01*
X117396816Y-60998859D01*
X117396809Y-60998846D01*
X117298264Y-60851365D01*
X117298261Y-60851361D01*
X117260618Y-60813718D01*
X117227133Y-60752395D01*
X117224299Y-60726037D01*
X117224299Y-52767493D01*
X117224291Y-52767353D01*
X117224293Y-52741581D01*
X117194806Y-52555371D01*
X117136551Y-52376067D01*
X117050963Y-52208085D01*
X116940149Y-52055560D01*
X116940147Y-52055557D01*
X116940144Y-52055554D01*
X116908121Y-52023530D01*
X116908104Y-52023499D01*
X116806841Y-51922236D01*
X116654328Y-51811431D01*
X116654315Y-51811422D01*
X116486332Y-51725835D01*
X116486329Y-51725834D01*
X116307026Y-51667581D01*
X116307027Y-51667581D01*
X116120817Y-51638095D01*
X116120816Y-51638095D01*
X116027397Y-51638098D01*
X114392305Y-51638098D01*
X114392213Y-51638102D01*
X114335279Y-51638102D01*
X114335273Y-51638102D01*
X114335268Y-51638103D01*
X114089542Y-51670453D01*
X114089532Y-51670455D01*
X113893939Y-51722864D01*
X113850125Y-51734604D01*
X113850123Y-51734604D01*
X113850122Y-51734605D01*
X113850109Y-51734609D01*
X113621142Y-51829449D01*
X113621127Y-51829456D01*
X113406478Y-51953384D01*
X113209834Y-52104273D01*
X113209828Y-52104279D01*
X113175917Y-52138189D01*
X113175911Y-52138197D01*
X113175909Y-52138199D01*
X113150511Y-52163597D01*
X113150501Y-52163602D01*
X113034575Y-52279528D01*
X113034569Y-52279535D01*
X112883680Y-52476177D01*
X112883679Y-52476179D01*
X112759758Y-52690819D01*
X112759750Y-52690836D01*
X112664904Y-52919814D01*
X112664901Y-52919824D01*
X112600753Y-53159229D01*
X112600750Y-53159242D01*
X112568400Y-53404970D01*
X112568399Y-53404986D01*
X112568400Y-53467301D01*
X112568400Y-57219338D01*
X112548715Y-57286377D01*
X112532081Y-57307019D01*
X112494438Y-57344661D01*
X112494435Y-57344665D01*
X112395890Y-57492146D01*
X112395883Y-57492159D01*
X112328006Y-57656032D01*
X112328003Y-57656041D01*
X112293400Y-57830004D01*
X112293400Y-58007395D01*
X112328003Y-58181358D01*
X112328006Y-58181367D01*
X112395883Y-58345240D01*
X112395890Y-58345253D01*
X112494435Y-58492734D01*
X112494438Y-58492738D01*
X112619861Y-58618161D01*
X112619865Y-58618164D01*
X112767346Y-58716709D01*
X112767359Y-58716716D01*
X112890263Y-58767623D01*
X112931234Y-58784594D01*
X112931236Y-58784594D01*
X112931241Y-58784596D01*
X113105204Y-58819199D01*
X113105207Y-58819200D01*
X113105209Y-58819200D01*
X113282593Y-58819200D01*
X113282594Y-58819199D01*
X113340582Y-58807664D01*
X113456558Y-58784596D01*
X113456561Y-58784594D01*
X113456566Y-58784594D01*
X113620447Y-58716713D01*
X113657829Y-58691734D01*
X113681609Y-58675846D01*
X113748286Y-58654968D01*
X113815666Y-58673452D01*
X113862357Y-58725431D01*
X113874500Y-58778948D01*
X113874500Y-60550638D01*
X113854815Y-60617677D01*
X113838181Y-60638319D01*
X113800538Y-60675961D01*
X113800535Y-60675965D01*
X113701990Y-60823446D01*
X113701983Y-60823459D01*
X113634106Y-60987332D01*
X113634103Y-60987341D01*
X113599500Y-61161304D01*
X113599500Y-61338695D01*
X113634103Y-61512658D01*
X113634106Y-61512667D01*
X113701983Y-61676540D01*
X113701990Y-61676553D01*
X113800535Y-61824034D01*
X113800538Y-61824038D01*
X113925961Y-61949461D01*
X113925965Y-61949464D01*
X114073446Y-62048009D01*
X114073459Y-62048016D01*
X114196363Y-62098923D01*
X114237334Y-62115894D01*
X114237336Y-62115894D01*
X114237341Y-62115896D01*
X114411304Y-62150499D01*
X114411307Y-62150500D01*
X114411309Y-62150500D01*
X114588693Y-62150500D01*
X114588694Y-62150499D01*
X114646682Y-62138964D01*
X114762658Y-62115896D01*
X114762661Y-62115894D01*
X114762666Y-62115894D01*
X114926547Y-62048013D01*
X115074035Y-61949464D01*
X115199464Y-61824035D01*
X115298013Y-61676547D01*
X115365894Y-61512666D01*
X115372864Y-61477629D01*
X115400499Y-61338695D01*
X115400500Y-61338693D01*
X115400500Y-61161306D01*
X115400499Y-61161304D01*
X115365896Y-60987341D01*
X115365893Y-60987332D01*
X115298016Y-60823459D01*
X115298009Y-60823446D01*
X115199464Y-60675965D01*
X115199461Y-60675961D01*
X115161819Y-60638319D01*
X115128334Y-60576996D01*
X115125500Y-60550638D01*
X115125500Y-54449361D01*
X115145185Y-54382322D01*
X115161820Y-54361679D01*
X115199461Y-54324038D01*
X115199464Y-54324035D01*
X115298013Y-54176547D01*
X115365894Y-54012666D01*
X115400500Y-53838691D01*
X115400500Y-53661309D01*
X115400500Y-53661306D01*
X115400499Y-53661304D01*
X115365896Y-53487341D01*
X115365893Y-53487332D01*
X115298016Y-53323459D01*
X115298009Y-53323446D01*
X115199464Y-53175965D01*
X115199461Y-53175961D01*
X115124279Y-53100779D01*
X115090794Y-53039456D01*
X115095778Y-52969764D01*
X115137650Y-52913831D01*
X115203114Y-52889414D01*
X115211960Y-52889098D01*
X115849299Y-52889098D01*
X115916338Y-52908783D01*
X115962093Y-52961587D01*
X115973299Y-53013098D01*
X115973299Y-60726038D01*
X115953614Y-60793077D01*
X115936982Y-60813717D01*
X115899338Y-60851362D01*
X115899333Y-60851368D01*
X115800790Y-60998846D01*
X115800783Y-60998859D01*
X115732906Y-61162732D01*
X115732903Y-61162741D01*
X115698300Y-61336704D01*
X115698300Y-61514095D01*
X115732903Y-61688058D01*
X115732906Y-61688067D01*
X115800783Y-61851940D01*
X115800790Y-61851953D01*
X115899335Y-61999434D01*
X115899338Y-61999438D01*
X116024761Y-62124861D01*
X116024765Y-62124864D01*
X116172246Y-62223409D01*
X116172259Y-62223416D01*
X116295163Y-62274323D01*
X116336134Y-62291294D01*
X116336136Y-62291294D01*
X116336141Y-62291296D01*
X116510104Y-62325899D01*
X116510107Y-62325900D01*
X116510109Y-62325900D01*
X116563347Y-62325900D01*
X116630386Y-62345585D01*
X116651028Y-62362219D01*
X117373438Y-63084630D01*
X117377617Y-63089018D01*
X117604614Y-63339469D01*
X117612307Y-63348844D01*
X117811828Y-63617865D01*
X117818577Y-63627967D01*
X117863256Y-63702509D01*
X117990755Y-63915227D01*
X117996491Y-63925959D01*
X118139677Y-64228697D01*
X118144333Y-64239938D01*
X118210894Y-64425961D01*
X118257159Y-64555260D01*
X118260691Y-64566903D01*
X118320366Y-64805133D01*
X118342069Y-64891772D01*
X118344443Y-64903707D01*
X118393584Y-65234979D01*
X118394777Y-65247088D01*
X118411350Y-65584373D01*
X118411499Y-65590459D01*
X118411499Y-72968693D01*
X118391814Y-73035732D01*
X118390601Y-73037584D01*
X118301489Y-73170947D01*
X118301482Y-73170960D01*
X118233605Y-73334833D01*
X118233602Y-73334842D01*
X118198999Y-73508805D01*
X118198999Y-73686196D01*
X118233602Y-73860159D01*
X118233604Y-73860163D01*
X118233605Y-73860167D01*
X118239876Y-73875306D01*
X118251058Y-73902302D01*
X118258526Y-73971771D01*
X118227250Y-74034250D01*
X118167161Y-74069902D01*
X118097335Y-74067407D01*
X118070525Y-74054748D01*
X118047912Y-74040539D01*
X117845766Y-73943190D01*
X117774395Y-73908819D01*
X117774393Y-73908818D01*
X117487850Y-73808550D01*
X117191878Y-73740995D01*
X116890219Y-73707003D01*
X116800026Y-73707003D01*
X116800024Y-73707003D01*
X116753658Y-73707003D01*
X116738426Y-73707003D01*
X116662477Y-73707002D01*
X116662471Y-73707003D01*
X116657343Y-73707003D01*
X116013524Y-73707004D01*
X115988940Y-73707004D01*
X115988916Y-73706997D01*
X115848016Y-73706999D01*
X115670435Y-73730381D01*
X115670427Y-73730382D01*
X115497431Y-73776740D01*
X115343022Y-73840700D01*
X115331948Y-73845287D01*
X115306183Y-73860163D01*
X115176828Y-73934847D01*
X115034731Y-74043884D01*
X115025126Y-74053487D01*
X115025117Y-74053497D01*
X115025113Y-74053502D01*
X115025111Y-74053504D01*
X114971406Y-74107208D01*
X114917702Y-74160913D01*
X114917697Y-74160919D01*
X114914071Y-74164546D01*
X114914068Y-74164547D01*
X114908085Y-74170532D01*
X114908084Y-74170532D01*
X114799053Y-74312623D01*
X114799045Y-74312635D01*
X114709489Y-74467747D01*
X114709484Y-74467759D01*
X114640945Y-74633220D01*
X114640941Y-74633230D01*
X114594584Y-74806226D01*
X114571201Y-74983811D01*
X114571201Y-75000000D01*
X114571201Y-75011769D01*
X114571200Y-75011776D01*
X114571200Y-75045690D01*
X114571200Y-75073367D01*
X114571198Y-75156900D01*
X114571200Y-75156933D01*
X114571200Y-75191148D01*
X114571208Y-75191309D01*
X114571208Y-75220984D01*
X114596656Y-75414293D01*
X114647118Y-75602622D01*
X114721724Y-75782741D01*
X114721734Y-75782760D01*
X114819203Y-75951590D01*
X114819209Y-75951599D01*
X114819211Y-75951602D01*
X114937900Y-76106286D01*
X114937906Y-76106292D01*
X114960152Y-76128541D01*
X114963276Y-76131665D01*
X114963279Y-76131669D01*
X114983201Y-76151591D01*
X115001784Y-76170174D01*
X115006828Y-76175218D01*
X115006830Y-76175221D01*
X115066362Y-76234756D01*
X115066393Y-76234783D01*
X115192751Y-76361141D01*
X115243006Y-76411397D01*
X115249614Y-76418545D01*
X115347578Y-76533245D01*
X115359015Y-76548986D01*
X115435278Y-76673434D01*
X115444110Y-76690769D01*
X115499965Y-76825610D01*
X115505974Y-76844099D01*
X115540051Y-76986032D01*
X115543094Y-77005241D01*
X115554918Y-77155434D01*
X115555300Y-77165166D01*
X115555316Y-83685991D01*
X115555316Y-83692130D01*
X115555314Y-83692141D01*
X115555316Y-83749013D01*
X115555317Y-83749310D01*
X115555317Y-83759960D01*
X115554257Y-83776142D01*
X115551128Y-83799921D01*
X115542749Y-83831197D01*
X115536711Y-83845774D01*
X115520525Y-83873808D01*
X115509087Y-83888714D01*
X115486196Y-83911605D01*
X115474194Y-83920814D01*
X115446162Y-83936998D01*
X115435206Y-83941536D01*
X115403939Y-83949913D01*
X115392196Y-83951459D01*
X115359823Y-83951459D01*
X115348059Y-83949910D01*
X115316799Y-83941534D01*
X115305842Y-83936996D01*
X115277809Y-83920813D01*
X115261910Y-83908613D01*
X115249731Y-83897933D01*
X114667729Y-83315949D01*
X114633032Y-83281253D01*
X114599546Y-83219930D01*
X114599095Y-83169379D01*
X114619800Y-83065291D01*
X114619800Y-82887909D01*
X114619800Y-82887906D01*
X114619799Y-82887904D01*
X114585196Y-82713941D01*
X114585193Y-82713932D01*
X114517316Y-82550059D01*
X114517309Y-82550046D01*
X114418764Y-82402565D01*
X114418761Y-82402561D01*
X114293338Y-82277138D01*
X114293334Y-82277135D01*
X114145844Y-82178585D01*
X114123147Y-82169184D01*
X114068743Y-82125343D01*
X114046679Y-82059048D01*
X114046600Y-82054623D01*
X114046600Y-80764861D01*
X114066285Y-80697822D01*
X114082920Y-80677179D01*
X114120561Y-80639538D01*
X114120564Y-80639535D01*
X114219113Y-80492047D01*
X114286994Y-80328166D01*
X114321600Y-80154191D01*
X114321600Y-79976809D01*
X114321600Y-79976806D01*
X114321599Y-79976804D01*
X114286996Y-79802841D01*
X114286993Y-79802832D01*
X114219116Y-79638959D01*
X114219109Y-79638946D01*
X114120564Y-79491465D01*
X114120561Y-79491461D01*
X113995138Y-79366038D01*
X113995134Y-79366035D01*
X113847653Y-79267490D01*
X113847640Y-79267483D01*
X113683767Y-79199606D01*
X113683758Y-79199603D01*
X113509794Y-79165000D01*
X113509791Y-79165000D01*
X113332409Y-79165000D01*
X113332406Y-79165000D01*
X113158441Y-79199603D01*
X113158432Y-79199606D01*
X112994559Y-79267483D01*
X112994546Y-79267490D01*
X112847065Y-79366035D01*
X112847061Y-79366038D01*
X112721638Y-79491461D01*
X112721635Y-79491465D01*
X112623090Y-79638946D01*
X112623083Y-79638959D01*
X112555206Y-79802832D01*
X112555203Y-79802841D01*
X112520600Y-79976804D01*
X112520600Y-80154195D01*
X112555203Y-80328158D01*
X112555206Y-80328167D01*
X112623083Y-80492040D01*
X112623090Y-80492053D01*
X112721635Y-80639534D01*
X112721638Y-80639538D01*
X112759280Y-80677179D01*
X112792766Y-80738501D01*
X112795600Y-80764861D01*
X112795600Y-81936510D01*
X112787502Y-81964086D01*
X112782309Y-81992363D01*
X112776947Y-82000034D01*
X112775915Y-82003549D01*
X112762089Y-82021291D01*
X112758628Y-82024985D01*
X112755821Y-82027884D01*
X112703531Y-82080175D01*
X112703530Y-82080176D01*
X112703527Y-82080178D01*
X112703528Y-82080179D01*
X112623466Y-82160241D01*
X112623278Y-82160471D01*
X112615128Y-82169460D01*
X112594572Y-82190017D01*
X112594570Y-82190019D01*
X112594567Y-82190022D01*
X112551003Y-82233585D01*
X112507440Y-82277148D01*
X112483661Y-82312738D01*
X112483659Y-82312741D01*
X112465765Y-82339519D01*
X112438987Y-82379594D01*
X112438985Y-82379598D01*
X112405647Y-82460086D01*
X112405647Y-82460087D01*
X112391837Y-82493428D01*
X112391835Y-82493434D01*
X112385929Y-82523121D01*
X112385930Y-82523122D01*
X112375050Y-82577828D01*
X112375049Y-82577833D01*
X112367800Y-82614273D01*
X112367800Y-84349836D01*
X112348115Y-84416875D01*
X112331481Y-84437517D01*
X112300538Y-84468459D01*
X112300535Y-84468463D01*
X112201990Y-84615944D01*
X112201983Y-84615957D01*
X112134106Y-84779830D01*
X112134103Y-84779839D01*
X112099500Y-84953802D01*
X80750499Y-84953802D01*
X80750499Y-84454754D01*
X80739930Y-84320447D01*
X80684051Y-84098684D01*
X80589472Y-83890464D01*
X80589471Y-83890462D01*
X80589468Y-83890456D01*
X80459240Y-83702485D01*
X80459237Y-83702481D01*
X80459234Y-83702477D01*
X80297523Y-83540766D01*
X80297519Y-83540763D01*
X80297514Y-83540759D01*
X80109543Y-83410531D01*
X80109537Y-83410528D01*
X80005426Y-83363238D01*
X79901316Y-83315949D01*
X79679553Y-83260070D01*
X79545247Y-83249500D01*
X79545245Y-83249500D01*
X77454761Y-83249500D01*
X77454746Y-83249501D01*
X77320447Y-83260070D01*
X77098684Y-83315949D01*
X76890462Y-83410528D01*
X76890456Y-83410531D01*
X76702485Y-83540759D01*
X76702473Y-83540769D01*
X76540769Y-83702473D01*
X76540759Y-83702485D01*
X76410531Y-83890456D01*
X76410528Y-83890462D01*
X76315949Y-84098684D01*
X76260070Y-84320447D01*
X76249500Y-84454747D01*
X70000500Y-84454747D01*
X70000500Y-80352486D01*
X76249500Y-80352486D01*
X76249500Y-80647513D01*
X76264950Y-80764861D01*
X76288007Y-80939993D01*
X76288008Y-80939995D01*
X76364361Y-81224951D01*
X76364364Y-81224961D01*
X76477254Y-81497500D01*
X76477258Y-81497510D01*
X76624761Y-81752993D01*
X76804352Y-81987040D01*
X76804358Y-81987047D01*
X77012952Y-82195641D01*
X77012959Y-82195647D01*
X77247006Y-82375238D01*
X77502489Y-82522741D01*
X77502490Y-82522741D01*
X77502493Y-82522743D01*
X77775048Y-82635639D01*
X78060007Y-82711993D01*
X78352494Y-82750500D01*
X78352501Y-82750500D01*
X78647499Y-82750500D01*
X78647506Y-82750500D01*
X78939993Y-82711993D01*
X79224952Y-82635639D01*
X79497507Y-82522743D01*
X79752994Y-82375238D01*
X79987042Y-82195646D01*
X80195646Y-81987042D01*
X80375238Y-81752994D01*
X80522743Y-81497507D01*
X80635639Y-81224952D01*
X80711993Y-80939993D01*
X80750500Y-80647506D01*
X80750500Y-80352494D01*
X80711993Y-80060007D01*
X80635639Y-79775048D01*
X80522743Y-79502493D01*
X80375238Y-79247006D01*
X80195646Y-79012958D01*
X80195641Y-79012952D01*
X79987047Y-78804358D01*
X79987040Y-78804352D01*
X79752993Y-78624761D01*
X79497510Y-78477258D01*
X79497500Y-78477254D01*
X79224961Y-78364364D01*
X79224954Y-78364362D01*
X79224952Y-78364361D01*
X78939993Y-78288007D01*
X78891113Y-78281571D01*
X78647513Y-78249500D01*
X78647506Y-78249500D01*
X78352494Y-78249500D01*
X78352486Y-78249500D01*
X78074085Y-78286153D01*
X78060007Y-78288007D01*
X77775048Y-78364361D01*
X77775038Y-78364364D01*
X77502499Y-78477254D01*
X77502489Y-78477258D01*
X77247006Y-78624761D01*
X77012959Y-78804352D01*
X77012952Y-78804358D01*
X76804358Y-79012952D01*
X76804352Y-79012959D01*
X76624761Y-79247006D01*
X76477258Y-79502489D01*
X76477254Y-79502499D01*
X76364364Y-79775038D01*
X76364361Y-79775048D01*
X76310301Y-79976806D01*
X76288008Y-80060004D01*
X76288006Y-80060015D01*
X76249500Y-80352486D01*
X70000500Y-80352486D01*
X70000500Y-77405513D01*
X72299500Y-77405513D01*
X72299500Y-77594486D01*
X72329059Y-77781118D01*
X72387454Y-77960836D01*
X72452600Y-78088691D01*
X72473240Y-78129199D01*
X72584310Y-78282073D01*
X72717927Y-78415690D01*
X72870801Y-78526760D01*
X72950347Y-78567290D01*
X73039163Y-78612545D01*
X73039165Y-78612545D01*
X73039168Y-78612547D01*
X73076759Y-78624761D01*
X73218881Y-78670940D01*
X73405514Y-78700500D01*
X73405519Y-78700500D01*
X73594486Y-78700500D01*
X73781118Y-78670940D01*
X73960832Y-78612547D01*
X74129199Y-78526760D01*
X74282073Y-78415690D01*
X74415690Y-78282073D01*
X74526760Y-78129199D01*
X74612547Y-77960832D01*
X74670940Y-77781118D01*
X74677875Y-77737332D01*
X74700500Y-77594486D01*
X74700500Y-77405513D01*
X74670940Y-77218881D01*
X74625754Y-77079815D01*
X74612547Y-77039168D01*
X74612545Y-77039165D01*
X74612545Y-77039163D01*
X74526759Y-76870800D01*
X74507368Y-76844111D01*
X74415690Y-76717927D01*
X74282073Y-76584310D01*
X74129199Y-76473240D01*
X73960836Y-76387454D01*
X73781118Y-76329059D01*
X73594486Y-76299500D01*
X73594481Y-76299500D01*
X73405519Y-76299500D01*
X73405514Y-76299500D01*
X73218881Y-76329059D01*
X73039163Y-76387454D01*
X72870800Y-76473240D01*
X72788212Y-76533245D01*
X72717927Y-76584310D01*
X72717925Y-76584312D01*
X72717924Y-76584312D01*
X72584312Y-76717924D01*
X72584312Y-76717925D01*
X72584310Y-76717927D01*
X72567158Y-76741535D01*
X72473240Y-76870800D01*
X72387454Y-77039163D01*
X72329059Y-77218881D01*
X72299500Y-77405513D01*
X70000500Y-77405513D01*
X70000500Y-69911304D01*
X71599500Y-69911304D01*
X71599500Y-70088695D01*
X71634103Y-70262658D01*
X71634106Y-70262667D01*
X71701983Y-70426540D01*
X71701990Y-70426553D01*
X71705037Y-70431113D01*
X71725912Y-70497792D01*
X71707425Y-70565171D01*
X71705037Y-70568887D01*
X71701990Y-70573446D01*
X71701983Y-70573459D01*
X71634106Y-70737332D01*
X71634103Y-70737341D01*
X71599500Y-70911304D01*
X71599500Y-71088695D01*
X71634103Y-71262658D01*
X71634106Y-71262667D01*
X71701983Y-71426540D01*
X71701990Y-71426553D01*
X71800535Y-71574034D01*
X71800538Y-71574038D01*
X71925961Y-71699461D01*
X71925965Y-71699464D01*
X72073446Y-71798009D01*
X72073459Y-71798016D01*
X72196363Y-71848923D01*
X72237334Y-71865894D01*
X72237336Y-71865894D01*
X72237341Y-71865896D01*
X72411304Y-71900499D01*
X72411307Y-71900500D01*
X72411309Y-71900500D01*
X72588693Y-71900500D01*
X72588694Y-71900499D01*
X72646682Y-71888964D01*
X72762658Y-71865896D01*
X72762661Y-71865894D01*
X72762666Y-71865894D01*
X72926547Y-71798013D01*
X73074035Y-71699464D01*
X73199464Y-71574035D01*
X73298013Y-71426547D01*
X73365894Y-71262666D01*
X73400500Y-71088691D01*
X73400500Y-70911309D01*
X73400500Y-70911306D01*
X73400499Y-70911304D01*
X92099500Y-70911304D01*
X92099500Y-71088695D01*
X92134103Y-71262658D01*
X92134106Y-71262667D01*
X92201983Y-71426540D01*
X92201990Y-71426553D01*
X92300535Y-71574034D01*
X92300538Y-71574038D01*
X92425961Y-71699461D01*
X92425965Y-71699464D01*
X92573446Y-71798009D01*
X92573459Y-71798016D01*
X92696363Y-71848923D01*
X92737334Y-71865894D01*
X92737336Y-71865894D01*
X92737341Y-71865896D01*
X92911304Y-71900499D01*
X92911307Y-71900500D01*
X92911309Y-71900500D01*
X93088693Y-71900500D01*
X93088694Y-71900499D01*
X93146682Y-71888964D01*
X93262658Y-71865896D01*
X93262661Y-71865894D01*
X93262666Y-71865894D01*
X93426547Y-71798013D01*
X93574035Y-71699464D01*
X93611679Y-71661820D01*
X93673001Y-71628334D01*
X93699361Y-71625500D01*
X94438394Y-71625500D01*
X106189548Y-71625500D01*
X106256587Y-71645185D01*
X106277229Y-71661819D01*
X109827328Y-75211918D01*
X109860813Y-75273241D01*
X109855829Y-75342933D01*
X109813957Y-75398866D01*
X109748493Y-75423283D01*
X109680220Y-75408431D01*
X109670756Y-75402701D01*
X109621053Y-75369490D01*
X109621040Y-75369483D01*
X109457167Y-75301606D01*
X109457158Y-75301603D01*
X109283194Y-75267000D01*
X109283191Y-75267000D01*
X109229952Y-75267000D01*
X109162913Y-75247315D01*
X109142271Y-75230681D01*
X108959977Y-75048387D01*
X108959944Y-75048327D01*
X108923657Y-75012040D01*
X108923658Y-75012040D01*
X108817347Y-74905729D01*
X108584908Y-74714972D01*
X108334889Y-74547917D01*
X108176757Y-74463395D01*
X108069698Y-74406171D01*
X107791904Y-74291109D01*
X107791896Y-74291106D01*
X107504155Y-74203824D01*
X107209230Y-74145164D01*
X106990462Y-74123621D01*
X106909986Y-74115697D01*
X106909983Y-74115697D01*
X106759640Y-74115700D01*
X102339961Y-74115700D01*
X102272922Y-74096015D01*
X102252279Y-74079380D01*
X102214638Y-74041738D01*
X102214634Y-74041735D01*
X102067153Y-73943190D01*
X102067140Y-73943183D01*
X101903267Y-73875306D01*
X101903258Y-73875303D01*
X101729294Y-73840700D01*
X101729291Y-73840700D01*
X101551909Y-73840700D01*
X101551906Y-73840700D01*
X101377941Y-73875303D01*
X101377932Y-73875306D01*
X101214059Y-73943183D01*
X101214046Y-73943190D01*
X101066565Y-74041735D01*
X101066561Y-74041738D01*
X100941138Y-74167161D01*
X100941135Y-74167165D01*
X100842590Y-74314646D01*
X100842583Y-74314659D01*
X100774706Y-74478532D01*
X100774703Y-74478541D01*
X100740100Y-74652504D01*
X100740100Y-74829895D01*
X100774703Y-75003858D01*
X100774706Y-75003867D01*
X100842583Y-75167740D01*
X100842590Y-75167753D01*
X100941135Y-75315234D01*
X100941138Y-75315238D01*
X101066561Y-75440661D01*
X101066565Y-75440664D01*
X101214046Y-75539209D01*
X101214059Y-75539216D01*
X101260604Y-75558495D01*
X101377934Y-75607094D01*
X101377936Y-75607094D01*
X101377941Y-75607096D01*
X101551904Y-75641699D01*
X101551907Y-75641700D01*
X101551909Y-75641700D01*
X101729293Y-75641700D01*
X101729294Y-75641699D01*
X101815429Y-75624566D01*
X101903258Y-75607096D01*
X101903261Y-75607094D01*
X101903266Y-75607094D01*
X102067147Y-75539213D01*
X102214635Y-75440664D01*
X102252279Y-75403020D01*
X102313601Y-75369534D01*
X102339961Y-75366700D01*
X106683711Y-75366700D01*
X106683715Y-75366701D01*
X106755601Y-75366700D01*
X106763707Y-75366965D01*
X106790502Y-75368720D01*
X106987729Y-75381644D01*
X107003794Y-75383758D01*
X107219991Y-75426759D01*
X107235649Y-75430954D01*
X107444386Y-75501809D01*
X107459347Y-75508005D01*
X107657056Y-75605502D01*
X107671091Y-75613605D01*
X107854370Y-75736067D01*
X107867238Y-75745941D01*
X107909210Y-75782749D01*
X108035784Y-75893751D01*
X108041706Y-75899298D01*
X108257681Y-76115272D01*
X108291166Y-76176595D01*
X108294000Y-76202953D01*
X108294000Y-76256195D01*
X108328603Y-76430158D01*
X108328606Y-76430167D01*
X108396483Y-76594040D01*
X108396490Y-76594053D01*
X108495035Y-76741534D01*
X108495038Y-76741538D01*
X108620461Y-76866961D01*
X108620465Y-76866964D01*
X108767946Y-76965509D01*
X108767959Y-76965516D01*
X108863866Y-77005241D01*
X108931834Y-77033394D01*
X108931836Y-77033394D01*
X108931841Y-77033396D01*
X109105804Y-77067999D01*
X109105807Y-77068000D01*
X109105809Y-77068000D01*
X109283193Y-77068000D01*
X109283194Y-77067999D01*
X109341182Y-77056464D01*
X109457158Y-77033396D01*
X109457161Y-77033394D01*
X109457166Y-77033394D01*
X109621047Y-76965513D01*
X109768535Y-76866964D01*
X109893964Y-76741535D01*
X109992513Y-76594047D01*
X110060394Y-76430166D01*
X110063353Y-76415294D01*
X110094999Y-76256195D01*
X110095000Y-76256193D01*
X110095000Y-76078806D01*
X110094999Y-76078804D01*
X110060396Y-75904841D01*
X110060393Y-75904832D01*
X110056910Y-75896424D01*
X110021969Y-75812066D01*
X109992516Y-75740959D01*
X109992514Y-75740955D01*
X109992513Y-75740953D01*
X109959298Y-75691243D01*
X109938420Y-75624566D01*
X109956904Y-75557186D01*
X110008883Y-75510495D01*
X110077853Y-75499319D01*
X110141916Y-75527204D01*
X110150081Y-75534671D01*
X112563181Y-77947771D01*
X112596666Y-78009094D01*
X112599500Y-78035452D01*
X112599500Y-78088695D01*
X112634103Y-78262658D01*
X112634106Y-78262667D01*
X112701983Y-78426540D01*
X112701990Y-78426553D01*
X112800535Y-78574034D01*
X112800538Y-78574038D01*
X112925961Y-78699461D01*
X112925965Y-78699464D01*
X113073446Y-78798009D01*
X113073459Y-78798016D01*
X113196363Y-78848923D01*
X113237334Y-78865894D01*
X113237336Y-78865894D01*
X113237341Y-78865896D01*
X113411304Y-78900499D01*
X113411307Y-78900500D01*
X113411309Y-78900500D01*
X113588693Y-78900500D01*
X113588694Y-78900499D01*
X113646682Y-78888964D01*
X113762658Y-78865896D01*
X113762661Y-78865894D01*
X113762666Y-78865894D01*
X113926547Y-78798013D01*
X114074035Y-78699464D01*
X114199464Y-78574035D01*
X114298013Y-78426547D01*
X114365894Y-78262666D01*
X114377839Y-78202618D01*
X114400499Y-78088695D01*
X114400500Y-78088693D01*
X114400500Y-77911306D01*
X114400499Y-77911304D01*
X114365896Y-77737341D01*
X114365893Y-77737332D01*
X114298016Y-77573459D01*
X114298009Y-77573446D01*
X114199464Y-77425965D01*
X114199461Y-77425961D01*
X114074038Y-77300538D01*
X114074034Y-77300535D01*
X113926553Y-77201990D01*
X113926540Y-77201983D01*
X113762667Y-77134106D01*
X113762658Y-77134103D01*
X113588694Y-77099500D01*
X113588691Y-77099500D01*
X113535452Y-77099500D01*
X113468413Y-77079815D01*
X113447771Y-77063181D01*
X106993150Y-70608560D01*
X106985860Y-70601270D01*
X106985858Y-70601267D01*
X106898733Y-70514142D01*
X106847509Y-70479915D01*
X106796286Y-70445688D01*
X106796283Y-70445686D01*
X106796280Y-70445685D01*
X106722603Y-70415168D01*
X106722601Y-70415167D01*
X106715792Y-70412347D01*
X106682452Y-70398537D01*
X106622029Y-70386518D01*
X106617306Y-70385578D01*
X106617304Y-70385578D01*
X106561610Y-70374500D01*
X106561607Y-70374500D01*
X106561606Y-70374500D01*
X94561606Y-70374500D01*
X93699361Y-70374500D01*
X93632322Y-70354815D01*
X93611679Y-70338180D01*
X93574038Y-70300538D01*
X93574034Y-70300535D01*
X93426553Y-70201990D01*
X93426540Y-70201983D01*
X93262667Y-70134106D01*
X93262658Y-70134103D01*
X93088694Y-70099500D01*
X93088691Y-70099500D01*
X92911309Y-70099500D01*
X92911306Y-70099500D01*
X92737341Y-70134103D01*
X92737332Y-70134106D01*
X92573459Y-70201983D01*
X92573446Y-70201990D01*
X92425965Y-70300535D01*
X92425961Y-70300538D01*
X92300538Y-70425961D01*
X92300535Y-70425965D01*
X92201990Y-70573446D01*
X92201983Y-70573459D01*
X92134106Y-70737332D01*
X92134103Y-70737341D01*
X92099500Y-70911304D01*
X73400499Y-70911304D01*
X73365896Y-70737341D01*
X73365893Y-70737332D01*
X73298015Y-70573457D01*
X73298014Y-70573455D01*
X73298013Y-70573453D01*
X73294965Y-70568892D01*
X73274086Y-70502217D01*
X73292569Y-70434837D01*
X73294962Y-70431113D01*
X73298013Y-70426547D01*
X73365894Y-70262666D01*
X73400500Y-70088691D01*
X73400500Y-69911309D01*
X73400500Y-69911306D01*
X73400499Y-69911304D01*
X73365896Y-69737341D01*
X73365893Y-69737332D01*
X73298016Y-69573459D01*
X73298009Y-69573446D01*
X73199464Y-69425965D01*
X73199461Y-69425961D01*
X73074038Y-69300538D01*
X73074034Y-69300535D01*
X72926553Y-69201990D01*
X72926540Y-69201983D01*
X72762667Y-69134106D01*
X72762658Y-69134103D01*
X72588694Y-69099500D01*
X72588691Y-69099500D01*
X72411309Y-69099500D01*
X72411306Y-69099500D01*
X72237341Y-69134103D01*
X72237332Y-69134106D01*
X72073459Y-69201983D01*
X72073446Y-69201990D01*
X71925965Y-69300535D01*
X71925961Y-69300538D01*
X71800538Y-69425961D01*
X71800535Y-69425965D01*
X71701990Y-69573446D01*
X71701983Y-69573459D01*
X71634106Y-69737332D01*
X71634103Y-69737341D01*
X71599500Y-69911304D01*
X70000500Y-69911304D01*
X70000500Y-64911304D01*
X98099500Y-64911304D01*
X98099500Y-65088695D01*
X98134103Y-65262658D01*
X98134106Y-65262667D01*
X98201983Y-65426540D01*
X98201990Y-65426553D01*
X98300535Y-65574034D01*
X98300538Y-65574038D01*
X98425961Y-65699461D01*
X98425965Y-65699464D01*
X98573446Y-65798009D01*
X98573459Y-65798016D01*
X98657280Y-65832735D01*
X98737334Y-65865894D01*
X98737336Y-65865894D01*
X98737341Y-65865896D01*
X98911304Y-65900499D01*
X98911307Y-65900500D01*
X98911309Y-65900500D01*
X99088693Y-65900500D01*
X99088694Y-65900499D01*
X99146682Y-65888964D01*
X99262658Y-65865896D01*
X99262661Y-65865894D01*
X99262666Y-65865894D01*
X99426547Y-65798013D01*
X99574035Y-65699464D01*
X99699464Y-65574035D01*
X99798013Y-65426547D01*
X99865894Y-65262666D01*
X99869847Y-65242794D01*
X99884326Y-65170004D01*
X100740100Y-65170004D01*
X100740100Y-65347395D01*
X100774703Y-65521358D01*
X100774706Y-65521367D01*
X100842583Y-65685240D01*
X100842590Y-65685253D01*
X100941135Y-65832734D01*
X100941138Y-65832738D01*
X101066561Y-65958161D01*
X101066565Y-65958164D01*
X101214046Y-66056709D01*
X101214059Y-66056716D01*
X101336963Y-66107623D01*
X101377934Y-66124594D01*
X101377936Y-66124594D01*
X101377941Y-66124596D01*
X101551904Y-66159199D01*
X101551907Y-66159200D01*
X101551909Y-66159200D01*
X101729293Y-66159200D01*
X101729294Y-66159199D01*
X101787282Y-66147664D01*
X101903258Y-66124596D01*
X101903261Y-66124594D01*
X101903266Y-66124594D01*
X102067147Y-66056713D01*
X102214635Y-65958164D01*
X102340064Y-65832735D01*
X102438613Y-65685247D01*
X102506494Y-65521366D01*
X102541100Y-65347391D01*
X102541100Y-65294157D01*
X102560785Y-65227118D01*
X102577419Y-65206475D01*
X102613886Y-65170009D01*
X102787862Y-64996034D01*
X102813781Y-64970116D01*
X102819688Y-64964582D01*
X102995405Y-64810482D01*
X103008252Y-64800625D01*
X103199202Y-64673034D01*
X103213214Y-64664944D01*
X103419179Y-64563374D01*
X103434150Y-64557172D01*
X103651597Y-64483358D01*
X103667251Y-64479163D01*
X103892472Y-64434363D01*
X103908541Y-64432247D01*
X104141569Y-64416971D01*
X104149612Y-64416706D01*
X104152844Y-64416706D01*
X104152857Y-64416706D01*
X104152857Y-64416705D01*
X108495138Y-64416700D01*
X108562177Y-64436384D01*
X108582819Y-64453019D01*
X108620461Y-64490661D01*
X108620465Y-64490664D01*
X108767946Y-64589209D01*
X108767959Y-64589216D01*
X108890863Y-64640123D01*
X108931834Y-64657094D01*
X108931836Y-64657094D01*
X108931841Y-64657096D01*
X109105804Y-64691699D01*
X109105807Y-64691700D01*
X109105809Y-64691700D01*
X109283193Y-64691700D01*
X109283194Y-64691699D01*
X109341182Y-64680164D01*
X109457158Y-64657096D01*
X109457161Y-64657094D01*
X109457166Y-64657094D01*
X109621047Y-64589213D01*
X109768535Y-64490664D01*
X109893964Y-64365235D01*
X109992513Y-64217747D01*
X110060394Y-64053866D01*
X110095000Y-63879891D01*
X110095000Y-63702509D01*
X110095000Y-63702506D01*
X110094999Y-63702504D01*
X110060396Y-63528541D01*
X110060393Y-63528532D01*
X109992516Y-63364659D01*
X109992509Y-63364646D01*
X109893964Y-63217165D01*
X109893961Y-63217161D01*
X109768538Y-63091738D01*
X109768534Y-63091735D01*
X109621053Y-62993190D01*
X109621040Y-62993183D01*
X109457167Y-62925306D01*
X109457158Y-62925303D01*
X109283194Y-62890700D01*
X109283191Y-62890700D01*
X109105809Y-62890700D01*
X109105806Y-62890700D01*
X108931841Y-62925303D01*
X108931832Y-62925306D01*
X108767959Y-62993183D01*
X108767946Y-62993190D01*
X108620468Y-63091733D01*
X108620462Y-63091738D01*
X108582816Y-63129383D01*
X108521492Y-63162867D01*
X108495137Y-63165700D01*
X104197147Y-63165705D01*
X104197116Y-63165696D01*
X103991979Y-63165696D01*
X103685856Y-63195849D01*
X103685844Y-63195851D01*
X103431447Y-63246456D01*
X103384167Y-63255861D01*
X103384164Y-63255861D01*
X103384151Y-63255865D01*
X103089816Y-63345152D01*
X102805633Y-63462866D01*
X102805618Y-63462873D01*
X102534359Y-63607864D01*
X102534341Y-63607875D01*
X102278596Y-63778760D01*
X102278582Y-63778770D01*
X102040804Y-63973910D01*
X101949497Y-64065218D01*
X101949496Y-64065220D01*
X101915214Y-64099501D01*
X101692831Y-64321882D01*
X101631508Y-64355366D01*
X101605150Y-64358200D01*
X101551906Y-64358200D01*
X101377941Y-64392803D01*
X101377932Y-64392806D01*
X101214059Y-64460683D01*
X101214046Y-64460690D01*
X101066565Y-64559235D01*
X101066561Y-64559238D01*
X100941138Y-64684661D01*
X100941135Y-64684665D01*
X100842590Y-64832146D01*
X100842583Y-64832159D01*
X100774706Y-64996032D01*
X100774703Y-64996041D01*
X100740100Y-65170004D01*
X99884326Y-65170004D01*
X99890349Y-65139726D01*
X99890349Y-65139725D01*
X99900500Y-65088693D01*
X99900500Y-64911306D01*
X99900499Y-64911304D01*
X99865896Y-64737341D01*
X99865893Y-64737332D01*
X99798016Y-64573459D01*
X99798009Y-64573446D01*
X99699464Y-64425965D01*
X99699461Y-64425961D01*
X99661819Y-64388319D01*
X99628334Y-64326996D01*
X99625500Y-64300638D01*
X99625500Y-53310452D01*
X99645185Y-53243413D01*
X99661819Y-53222771D01*
X102222771Y-50661819D01*
X102284094Y-50628334D01*
X102310452Y-50625500D01*
X116189548Y-50625500D01*
X116256587Y-50645185D01*
X116277229Y-50661819D01*
X117838181Y-52222771D01*
X117871666Y-52284094D01*
X117874500Y-52310452D01*
X117874500Y-56300638D01*
X117854815Y-56367677D01*
X117838181Y-56388319D01*
X117800538Y-56425961D01*
X117800535Y-56425965D01*
X117701990Y-56573446D01*
X117701983Y-56573459D01*
X117634106Y-56737332D01*
X117634103Y-56737341D01*
X117599500Y-56911304D01*
X117599500Y-57088695D01*
X117634103Y-57262658D01*
X117634106Y-57262667D01*
X117701983Y-57426540D01*
X117701990Y-57426553D01*
X117800535Y-57574034D01*
X117800538Y-57574038D01*
X117925961Y-57699461D01*
X117925965Y-57699464D01*
X118073446Y-57798009D01*
X118073459Y-57798016D01*
X118150699Y-57830009D01*
X118237334Y-57865894D01*
X118237336Y-57865894D01*
X118237341Y-57865896D01*
X118411304Y-57900499D01*
X118411307Y-57900500D01*
X118411309Y-57900500D01*
X118588693Y-57900500D01*
X118588694Y-57900499D01*
X118646682Y-57888964D01*
X118762658Y-57865896D01*
X118762661Y-57865894D01*
X118762666Y-57865894D01*
X118926547Y-57798013D01*
X119074035Y-57699464D01*
X119199464Y-57574035D01*
X119298013Y-57426547D01*
X119365894Y-57262666D01*
X119366411Y-57260070D01*
X119400499Y-57088695D01*
X119400500Y-57088693D01*
X119400500Y-56911306D01*
X119400499Y-56911304D01*
X119365896Y-56737341D01*
X119365893Y-56737332D01*
X119355397Y-56711993D01*
X119323771Y-56635638D01*
X119298016Y-56573459D01*
X119298009Y-56573446D01*
X119199464Y-56425965D01*
X119199461Y-56425961D01*
X119161819Y-56388319D01*
X119128334Y-56326996D01*
X119125500Y-56300638D01*
X119125500Y-51938393D01*
X119125499Y-51938389D01*
X119122286Y-51922236D01*
X119101463Y-51817548D01*
X119071436Y-51745057D01*
X119054312Y-51703714D01*
X119010468Y-51638099D01*
X118985858Y-51601267D01*
X118985856Y-51601264D01*
X118895637Y-51511045D01*
X118895606Y-51511016D01*
X116993957Y-49609367D01*
X116985860Y-49601270D01*
X116985858Y-49601267D01*
X116898733Y-49514142D01*
X116817848Y-49460096D01*
X116812132Y-49456276D01*
X116812128Y-49456273D01*
X116796285Y-49445687D01*
X116796281Y-49445685D01*
X116711272Y-49410474D01*
X116711267Y-49410472D01*
X116702533Y-49406855D01*
X116682452Y-49398537D01*
X116579982Y-49378155D01*
X116561607Y-49374500D01*
X116561606Y-49374500D01*
X102061607Y-49374500D01*
X101938393Y-49374500D01*
X101920018Y-49378155D01*
X101837929Y-49394483D01*
X101817547Y-49398537D01*
X101797464Y-49406856D01*
X101703717Y-49445686D01*
X101703712Y-49445689D01*
X101689702Y-49455051D01*
X101684156Y-49458757D01*
X101601267Y-49514142D01*
X101514142Y-49601267D01*
X101514139Y-49601270D01*
X101510251Y-49605157D01*
X101510245Y-49605163D01*
X99101267Y-52014143D01*
X98601270Y-52514139D01*
X98514144Y-52601264D01*
X98514138Y-52601272D01*
X98445691Y-52703706D01*
X98445688Y-52703714D01*
X98426741Y-52749457D01*
X98416486Y-52774216D01*
X98398536Y-52817548D01*
X98392181Y-52849499D01*
X98392182Y-52849500D01*
X98376728Y-52927195D01*
X98374500Y-52938395D01*
X98374500Y-64300638D01*
X98354815Y-64367677D01*
X98338181Y-64388319D01*
X98300538Y-64425961D01*
X98300535Y-64425965D01*
X98201990Y-64573446D01*
X98201983Y-64573459D01*
X98134106Y-64737332D01*
X98134103Y-64737341D01*
X98099500Y-64911304D01*
X70000500Y-64911304D01*
X70000500Y-62405513D01*
X72299500Y-62405513D01*
X72299500Y-62594486D01*
X72329059Y-62781118D01*
X72387454Y-62960836D01*
X72473240Y-63129199D01*
X72584310Y-63282073D01*
X72717927Y-63415690D01*
X72870801Y-63526760D01*
X72950347Y-63567290D01*
X73039163Y-63612545D01*
X73039165Y-63612545D01*
X73039168Y-63612547D01*
X73086629Y-63627968D01*
X73218881Y-63670940D01*
X73405514Y-63700500D01*
X73405519Y-63700500D01*
X73594486Y-63700500D01*
X73781118Y-63670940D01*
X73960832Y-63612547D01*
X74129199Y-63526760D01*
X74282073Y-63415690D01*
X74415690Y-63282073D01*
X74526760Y-63129199D01*
X74612547Y-62960832D01*
X74670940Y-62781118D01*
X74700500Y-62594486D01*
X74700500Y-62405513D01*
X74670940Y-62218881D01*
X74643846Y-62135497D01*
X74612547Y-62039168D01*
X74612545Y-62039165D01*
X74612545Y-62039163D01*
X74526759Y-61870800D01*
X74513066Y-61851953D01*
X74415690Y-61717927D01*
X74282073Y-61584310D01*
X74129199Y-61473240D01*
X73960836Y-61387454D01*
X73781118Y-61329059D01*
X73594486Y-61299500D01*
X73594481Y-61299500D01*
X73405519Y-61299500D01*
X73405514Y-61299500D01*
X73218881Y-61329059D01*
X73039163Y-61387454D01*
X72870800Y-61473240D01*
X72814569Y-61514095D01*
X72717927Y-61584310D01*
X72717925Y-61584312D01*
X72717924Y-61584312D01*
X72584312Y-61717924D01*
X72584312Y-61717925D01*
X72584310Y-61717927D01*
X72568325Y-61739929D01*
X72473240Y-61870800D01*
X72387454Y-62039163D01*
X72329059Y-62218881D01*
X72299500Y-62405513D01*
X70000500Y-62405513D01*
X70000500Y-58454747D01*
X76249500Y-58454747D01*
X76249500Y-60545238D01*
X76249501Y-60545253D01*
X76249925Y-60550638D01*
X76260070Y-60679553D01*
X76303364Y-60851368D01*
X76315949Y-60901315D01*
X76410528Y-61109537D01*
X76410531Y-61109543D01*
X76540759Y-61297514D01*
X76540763Y-61297519D01*
X76540766Y-61297523D01*
X76702477Y-61459234D01*
X76702481Y-61459237D01*
X76702485Y-61459240D01*
X76890456Y-61589468D01*
X76890462Y-61589471D01*
X76890463Y-61589471D01*
X76890464Y-61589472D01*
X77098684Y-61684051D01*
X77320447Y-61739930D01*
X77454753Y-61750500D01*
X79545246Y-61750499D01*
X79679553Y-61739930D01*
X79901316Y-61684051D01*
X80109536Y-61589472D01*
X80109538Y-61589470D01*
X80109543Y-61589468D01*
X80270971Y-61477629D01*
X80297523Y-61459234D01*
X80459234Y-61297523D01*
X80487477Y-61256756D01*
X80589468Y-61109543D01*
X80589471Y-61109537D01*
X80589472Y-61109536D01*
X80684051Y-60901316D01*
X80739930Y-60679553D01*
X80750500Y-60545247D01*
X80750499Y-58454754D01*
X80739930Y-58320447D01*
X80684051Y-58098684D01*
X80589472Y-57890464D01*
X80589471Y-57890462D01*
X80589468Y-57890456D01*
X80459240Y-57702485D01*
X80459237Y-57702481D01*
X80459234Y-57702477D01*
X80297523Y-57540766D01*
X80297519Y-57540763D01*
X80297514Y-57540759D01*
X80109543Y-57410531D01*
X80109537Y-57410528D01*
X80005426Y-57363238D01*
X79901316Y-57315949D01*
X79679553Y-57260070D01*
X79545247Y-57249500D01*
X79545245Y-57249500D01*
X77454761Y-57249500D01*
X77454746Y-57249501D01*
X77320447Y-57260070D01*
X77098684Y-57315949D01*
X76890462Y-57410528D01*
X76890456Y-57410531D01*
X76702485Y-57540759D01*
X76702473Y-57540769D01*
X76540769Y-57702473D01*
X76540759Y-57702485D01*
X76410531Y-57890456D01*
X76410528Y-57890462D01*
X76315949Y-58098684D01*
X76260070Y-58320447D01*
X76249500Y-58454747D01*
X70000500Y-58454747D01*
X70000500Y-54352486D01*
X76249500Y-54352486D01*
X76249500Y-54647513D01*
X76281571Y-54891113D01*
X76288007Y-54939993D01*
X76288008Y-54939995D01*
X76364361Y-55224951D01*
X76364364Y-55224961D01*
X76477254Y-55497500D01*
X76477258Y-55497510D01*
X76624761Y-55752993D01*
X76804352Y-55987040D01*
X76804358Y-55987047D01*
X77012952Y-56195641D01*
X77012959Y-56195647D01*
X77247006Y-56375238D01*
X77502489Y-56522741D01*
X77502490Y-56522741D01*
X77502493Y-56522743D01*
X77775048Y-56635639D01*
X78060007Y-56711993D01*
X78352494Y-56750500D01*
X78352501Y-56750500D01*
X78647499Y-56750500D01*
X78647506Y-56750500D01*
X78939993Y-56711993D01*
X79224952Y-56635639D01*
X79497507Y-56522743D01*
X79752994Y-56375238D01*
X79987042Y-56195646D01*
X80195646Y-55987042D01*
X80375238Y-55752994D01*
X80522743Y-55497507D01*
X80635639Y-55224952D01*
X80711993Y-54939993D01*
X80750500Y-54647506D01*
X80750500Y-54352494D01*
X80711993Y-54060007D01*
X80635639Y-53775048D01*
X80522743Y-53502493D01*
X80466447Y-53404986D01*
X80375238Y-53247006D01*
X80195647Y-53012959D01*
X80195641Y-53012952D01*
X79987047Y-52804358D01*
X79987040Y-52804352D01*
X79752993Y-52624761D01*
X79497510Y-52477258D01*
X79497500Y-52477254D01*
X79224961Y-52364364D01*
X79224954Y-52364362D01*
X79224952Y-52364361D01*
X78939993Y-52288007D01*
X78891113Y-52281571D01*
X78647513Y-52249500D01*
X78647506Y-52249500D01*
X78352494Y-52249500D01*
X78352486Y-52249500D01*
X78074085Y-52286153D01*
X78060007Y-52288007D01*
X77976241Y-52310452D01*
X77775048Y-52364361D01*
X77775038Y-52364364D01*
X77502499Y-52477254D01*
X77502489Y-52477258D01*
X77247006Y-52624761D01*
X77012959Y-52804352D01*
X77012952Y-52804358D01*
X76804358Y-53012952D01*
X76804352Y-53012959D01*
X76624761Y-53247006D01*
X76477258Y-53502489D01*
X76477254Y-53502499D01*
X76364364Y-53775038D01*
X76364361Y-53775048D01*
X76347308Y-53838693D01*
X76288008Y-54060004D01*
X76288006Y-54060015D01*
X76249500Y-54352486D01*
X70000500Y-54352486D01*
X70000500Y-51405513D01*
X72299500Y-51405513D01*
X72299500Y-51594486D01*
X72329059Y-51781118D01*
X72387454Y-51960836D01*
X72460543Y-52104279D01*
X72473240Y-52129199D01*
X72584310Y-52282073D01*
X72717927Y-52415690D01*
X72870801Y-52526760D01*
X72950347Y-52567290D01*
X73039163Y-52612545D01*
X73039165Y-52612545D01*
X73039168Y-52612547D01*
X73076759Y-52624761D01*
X73218881Y-52670940D01*
X73405514Y-52700500D01*
X73405519Y-52700500D01*
X73594486Y-52700500D01*
X73781118Y-52670940D01*
X73960832Y-52612547D01*
X74129199Y-52526760D01*
X74282073Y-52415690D01*
X74415690Y-52282073D01*
X74526760Y-52129199D01*
X74612547Y-51960832D01*
X74670940Y-51781118D01*
X74675553Y-51751991D01*
X74700500Y-51594486D01*
X74700500Y-51405513D01*
X74670940Y-51218881D01*
X74612545Y-51039163D01*
X74526759Y-50870800D01*
X74415690Y-50717927D01*
X74282073Y-50584310D01*
X74129199Y-50473240D01*
X73960836Y-50387454D01*
X73781118Y-50329059D01*
X73594486Y-50299500D01*
X73594481Y-50299500D01*
X73405519Y-50299500D01*
X73405514Y-50299500D01*
X73218881Y-50329059D01*
X73039163Y-50387454D01*
X72870800Y-50473240D01*
X72783579Y-50536610D01*
X72717927Y-50584310D01*
X72717925Y-50584312D01*
X72717924Y-50584312D01*
X72584312Y-50717924D01*
X72584312Y-50717925D01*
X72584310Y-50717927D01*
X72536610Y-50783579D01*
X72473240Y-50870800D01*
X72387454Y-51039163D01*
X72329059Y-51218881D01*
X72299500Y-51405513D01*
X70000500Y-51405513D01*
X70000500Y-43818209D01*
X70299500Y-43818209D01*
X70299500Y-44181790D01*
X70335137Y-44543630D01*
X70406064Y-44900212D01*
X70406067Y-44900223D01*
X70511614Y-45248165D01*
X70650754Y-45584078D01*
X70650756Y-45584083D01*
X70822140Y-45904720D01*
X70822151Y-45904738D01*
X71024140Y-46207035D01*
X71024150Y-46207049D01*
X71254807Y-46488106D01*
X71511893Y-46745192D01*
X71511898Y-46745196D01*
X71511899Y-46745197D01*
X71792956Y-46975854D01*
X72095268Y-47177853D01*
X72095277Y-47177858D01*
X72095279Y-47177859D01*
X72415916Y-47349243D01*
X72415918Y-47349243D01*
X72415924Y-47349247D01*
X72751836Y-47488386D01*
X73099767Y-47593930D01*
X73099773Y-47593931D01*
X73099776Y-47593932D01*
X73099787Y-47593935D01*
X73456369Y-47664862D01*
X73818206Y-47700500D01*
X73818209Y-47700500D01*
X74181791Y-47700500D01*
X74181794Y-47700500D01*
X74543631Y-47664862D01*
X74613045Y-47651054D01*
X74900212Y-47593935D01*
X74900223Y-47593932D01*
X74900223Y-47593931D01*
X74900233Y-47593930D01*
X75248164Y-47488386D01*
X75584076Y-47349247D01*
X75904732Y-47177853D01*
X76207044Y-46975854D01*
X76488101Y-46745197D01*
X76745197Y-46488101D01*
X76975854Y-46207044D01*
X77177853Y-45904732D01*
X77349247Y-45584076D01*
X77488386Y-45248164D01*
X77593930Y-44900233D01*
X77593932Y-44900223D01*
X77593935Y-44900212D01*
X77664862Y-44543630D01*
X77700500Y-44181790D01*
X77700500Y-43818209D01*
X77664862Y-43456369D01*
X77593935Y-43099787D01*
X77593932Y-43099776D01*
X77593931Y-43099773D01*
X77593930Y-43099767D01*
X77488386Y-42751836D01*
X77349247Y-42415924D01*
X77328104Y-42376369D01*
X77177859Y-42095279D01*
X77177858Y-42095277D01*
X77177853Y-42095268D01*
X76975854Y-41792956D01*
X76745197Y-41511899D01*
X76745196Y-41511898D01*
X76745192Y-41511893D01*
X76488106Y-41254807D01*
X76207049Y-41024150D01*
X76207048Y-41024149D01*
X76207044Y-41024146D01*
X75904732Y-40822147D01*
X75904727Y-40822144D01*
X75904720Y-40822140D01*
X75584083Y-40650756D01*
X75584078Y-40650754D01*
X75582465Y-40650086D01*
X75388667Y-40569812D01*
X75248165Y-40511614D01*
X74900223Y-40406067D01*
X74900212Y-40406064D01*
X74543630Y-40335137D01*
X74271111Y-40308296D01*
X74181794Y-40299500D01*
X73818206Y-40299500D01*
X73735679Y-40307628D01*
X73456369Y-40335137D01*
X73099787Y-40406064D01*
X73099776Y-40406067D01*
X72751834Y-40511614D01*
X72415921Y-40650754D01*
X72415916Y-40650756D01*
X72095279Y-40822140D01*
X72095261Y-40822151D01*
X71792964Y-41024140D01*
X71792950Y-41024150D01*
X71511893Y-41254807D01*
X71254807Y-41511893D01*
X71024150Y-41792950D01*
X71024140Y-41792964D01*
X70822151Y-42095261D01*
X70822140Y-42095279D01*
X70650756Y-42415916D01*
X70650754Y-42415921D01*
X70511614Y-42751834D01*
X70406067Y-43099776D01*
X70406064Y-43099787D01*
X70335137Y-43456369D01*
X70299500Y-43818209D01*
X70000500Y-43818209D01*
X70000500Y-43003246D01*
X70000670Y-42996756D01*
X70015184Y-42719811D01*
X70015794Y-42712424D01*
X70022814Y-42650112D01*
X70023553Y-42644658D01*
X70061850Y-42402860D01*
X70063420Y-42394721D01*
X70076105Y-42339144D01*
X70077172Y-42334844D01*
X70142289Y-42091827D01*
X70145007Y-42083016D01*
X70159943Y-42040331D01*
X70161178Y-42036964D01*
X70255746Y-41790603D01*
X70259762Y-41781305D01*
X70269729Y-41760608D01*
X70270863Y-41758318D01*
X70399415Y-41506023D01*
X70405891Y-41494808D01*
X70569819Y-41242380D01*
X70577434Y-41231899D01*
X70766858Y-40997979D01*
X70775525Y-40988354D01*
X70988354Y-40775525D01*
X70997979Y-40766858D01*
X71231899Y-40577434D01*
X71242380Y-40569819D01*
X71494808Y-40405891D01*
X71506023Y-40399415D01*
X71758318Y-40270863D01*
X71760608Y-40269729D01*
X71781305Y-40259762D01*
X71790603Y-40255746D01*
X72036964Y-40161178D01*
X72040331Y-40159943D01*
X72083016Y-40145007D01*
X72091827Y-40142289D01*
X72334844Y-40077172D01*
X72339144Y-40076105D01*
X72394721Y-40063420D01*
X72402860Y-40061850D01*
X72644658Y-40023553D01*
X72650112Y-40022814D01*
X72712430Y-40015793D01*
X72719811Y-40015184D01*
X72996756Y-40000669D01*
X73003246Y-40000500D01*
X129876000Y-40000500D01*
X129943039Y-40020185D01*
G37*
%TD.AperFunction*%
%TD*%
%TA.AperFunction,Conductor*%
%TO.N,+24V*%
G36*
X141483472Y-84059469D02*
G01*
X141486899Y-84067742D01*
X141486896Y-84068022D01*
X141481912Y-84276319D01*
X141481889Y-84276812D01*
X141468347Y-84481372D01*
X141468308Y-84481832D01*
X141434411Y-84801760D01*
X141429783Y-84845435D01*
X141429778Y-84845480D01*
X141403825Y-85081725D01*
X141394713Y-85306109D01*
X141414241Y-85452501D01*
X141414242Y-85452504D01*
X141455449Y-85548525D01*
X141455562Y-85557479D01*
X141451049Y-85562965D01*
X140013959Y-86491974D01*
X140005151Y-86493587D01*
X139997781Y-86488500D01*
X139996214Y-86484813D01*
X139607099Y-84821197D01*
X139608552Y-84812362D01*
X139615824Y-84807142D01*
X139639273Y-84801760D01*
X139846365Y-84748639D01*
X140046570Y-84673555D01*
X140206667Y-84582425D01*
X140328198Y-84476812D01*
X140414769Y-84356221D01*
X140468297Y-84217670D01*
X140482323Y-84140195D01*
X140486547Y-84067066D01*
X140490446Y-84059005D01*
X140498227Y-84056042D01*
X141475201Y-84056042D01*
X141483472Y-84059469D01*
G37*
%TD.AperFunction*%
%TD*%
M02*
